<svg width="144" height="144" viewBox="0 0 144 144" fill="none" xmlns="http://www.w3.org/2000/svg">
<g clip-path="url(#clip0_1698_6969)">
<rect width="144" height="144" rx="16" fill="#FFE1F7"/>
<path d="M21.5625 23.6719C21.5625 25.6953 22.6094 27.9766 24.875 29.0469L23.7656 30.5469C22.2422 29.8594 21.1875 28.5234 20.5938 26.9375C19.9766 28.6484 18.8594 30.0859 17.25 30.7969L16.1562 29.25C18.4766 28.2266 19.5781 25.8047 19.5938 23.6719V23.125H16.6562V21.5312H19.5781V19.5312H21.5781V21.5312H24.4688V23.125H21.5625V23.6719ZM25.6406 33.4375V19.2188H27.6406V24.7344H29.7344V26.4062H27.6406V33.4375H25.6406ZM42.8675 25.75V27.3438H29.9613V25.75H34.805V23.0938H36.7738V25.75H42.8675ZM31.2738 30.1562V28.5625H41.2113V33.4375H39.2113V30.1562H31.2738ZM31.4144 21.4844V19.9219H41.3363V20.9375C41.3284 21.9922 41.3284 23.3125 40.9925 25.0156L38.9925 24.8281C39.2816 23.4531 39.3363 22.4062 39.3441 21.4844H31.4144ZM48.5788 23.6719C48.5788 25.6953 49.6256 27.9766 51.8913 29.0469L50.7819 30.5469C49.2584 29.8594 48.2038 28.5234 47.61 26.9375C46.9928 28.6484 45.8756 30.0859 44.2663 30.7969L43.1725 29.25C45.4928 28.2266 46.5944 25.8047 46.61 23.6719V23.125H43.6725V21.5312H46.5944V19.5312H48.5944V21.5312H51.485V23.125H48.5788V23.6719ZM52.6569 33.4375V19.2188H54.6569V24.7344H56.7506V26.4062H54.6569V33.4375H52.6569ZM69.8838 25.75V27.3438H56.9775V25.75H61.8213V23.0938H63.79V25.75H69.8838ZM58.29 30.1562V28.5625H68.2275V33.4375H66.2275V30.1562H58.29ZM58.4306 21.4844V19.9219H68.3525V20.9375C68.3447 21.9922 68.3447 23.3125 68.0088 25.0156L66.0088 24.8281C66.2978 23.4531 66.3525 22.4062 66.3603 21.4844H58.4306ZM85.5094 19.2188V22.0625H87.025V23.6719H85.5094V26.6719H83.525V19.2188H85.5094ZM73.5563 24.5469C75.1656 23.6484 75.6344 21.8828 75.6344 20.2656V19.7031H77.5094V20.2656C77.5094 21.4141 77.7047 22.7656 78.4938 23.8203C79.275 22.7812 79.4625 21.4453 79.4625 20.2812V19.7188H79.9469V19.7031H81.3219V20.2656C81.3219 21.9297 81.8063 23.6875 83.4313 24.5469L82.4 25.9688C81.3922 25.4375 80.775 24.5625 80.4078 23.5312C80.0641 24.5938 79.4781 25.5312 78.4938 26.125C77.5094 25.5312 76.9156 24.5781 76.5719 23.5078C76.2047 24.5469 75.5875 25.4297 74.6031 25.9688L73.5563 24.5469ZM75.65 28.8438V27.3438H79.7906V26.1562H81.8063V27.3438H85.9313V28.8438H75.65ZM76.4469 31.3594C76.4391 30.0469 78.025 29.2891 80.8063 29.2969C83.5406 29.2891 85.1188 30.0469 85.1188 31.3594C85.1188 32.7266 83.5406 33.4453 80.8063 33.4375C78.025 33.4453 76.4391 32.7266 76.4469 31.3594ZM78.4313 31.3594C78.4156 31.8516 79.1578 32.0469 80.8063 32.0469C82.3922 32.0469 83.1578 31.8516 83.1656 31.3594C83.1578 30.9141 82.3922 30.6953 80.8063 30.7031C79.1578 30.6953 78.4156 30.9141 78.4313 31.3594ZM91.1581 20.2188C93.33 20.2188 94.9003 22.1797 94.9081 25.2812C94.9003 28.4062 93.33 30.3594 91.1581 30.3594C88.9784 30.3594 87.4003 28.4062 87.4081 25.2812C87.4003 22.1797 88.9784 20.2188 91.1581 20.2188ZM89.33 25.2812C89.33 27.3984 90.0722 28.5547 91.1581 28.5469C92.2675 28.5547 92.9941 27.3984 93.0019 25.2812C92.9941 23.1719 92.2675 22.0156 91.1581 22.0156C90.0722 22.0156 89.33 23.1719 89.33 25.2812ZM96.5488 33.4375V19.2188H98.5488V24.5781H100.643V26.2344H98.5488V33.4375H96.5488ZM112.057 19.2188V24.6719H114.073V26.3125H112.057V33.4062H110.057V19.2188H112.057ZM100.682 29.4219C104.049 27.7344 105.862 25.4688 106.237 22.2969H101.494V20.6719H108.26C108.244 24.9219 106.588 28.6016 101.807 30.9531L100.682 29.4219ZM125.893 23.0938V24.6562H115.956V19.7188H117.94V23.0938H125.893ZM114.331 27.75V26.1875H127.346V27.75H114.331ZM115.831 33.125V28.9062H117.831V31.5312H125.987V33.125H115.831ZM23.7188 41.5781C23.7109 45.9531 22.5312 49.6172 17.4062 52.2812L16.3125 50.7812C18.5625 49.6016 19.9688 48.2812 20.7891 46.7031L16.6562 47.0781L16.3906 45.3906L21.4062 45.0938C21.5703 44.4922 21.6719 43.8516 21.7266 43.1719H17.1562V41.5781H23.7188ZM23.6875 47.3125V45.6875H26.4219V40.2188H28.4062V54.4375H26.4219V47.3125H23.6875ZM41.8519 40.2188V54.4688H39.8675V40.2188H41.8519ZM30.68 43.0156V41.4062H37.4456V46.8906H32.7581V49.5C34.93 49.4844 36.7659 49.375 38.8519 49.0312L39.0238 50.6406C36.6878 51.0547 34.5706 51.1406 31.9769 51.1406H30.6956V45.3125H35.4144V43.0156H30.68ZM47.36 41.2188C49.2819 41.2188 50.7194 42.7969 51.0006 45.3594H53.4694V40.2188H55.4381V54.4688H53.4694V46.9531H51.0241C50.8131 49.6875 49.3444 51.3594 47.36 51.3594C45.2038 51.3594 43.6569 49.4062 43.6725 46.2812C43.6569 43.1797 45.2038 41.2188 47.36 41.2188ZM45.5788 46.2812C45.5709 48.3984 46.2975 49.5547 47.36 49.5469C48.4303 49.5547 49.1413 48.3984 49.1413 46.2812C49.1413 44.1719 48.4303 43.0156 47.36 43.0156C46.2975 43.0156 45.5709 44.1719 45.5788 46.2812ZM71.9075 46.3438V47.9531H67.8138V51.2188H73.3294V52.8125H60.3138V51.2188H65.7981V47.9531H61.7669V41.3125H63.8138V46.3438H71.9075ZM85.4156 47.5625V49.1406H75.3531V41.2656H85.3063V42.875H77.3844V44.375H84.9781V45.9375H77.3844V47.5625H85.4156ZM73.8219 52.7812V51.1562H86.8375V52.7812H73.8219Z" fill="#202124"/>
<rect x="30" y="76" width="84" height="90" rx="10" fill="#CAE1FF"/>
<rect x="43" y="67" width="11" height="23" rx="5.5" fill="#FF9EE6"/>
<rect x="66" y="67" width="11" height="23" rx="5.5" fill="#FF9EE6"/>
<rect x="89" y="67" width="11" height="23" rx="5.5" fill="#FF9EE6"/>
<path d="M49 104H96" stroke="#A98BFF" stroke-width="2" stroke-linecap="round"/>
<path d="M49 118H96" stroke="#A98BFF" stroke-width="2" stroke-linecap="round"/>
<path d="M49 131H96" stroke="#A98BFF" stroke-width="2" stroke-linecap="round"/>
</g>
<defs>
<clipPath id="clip0_1698_6969">
<rect width="144" height="144" fill="white"/>
</clipPath>
</defs>
</svg>
