<svg width="52" height="68" viewBox="0 0 52 68" fill="none" xmlns="http://www.w3.org/2000/svg">
<path d="M51.1218 10.7409V56.8009C51.1218 57.1395 51.0554 57.4781 50.9227 57.7799L41.9134 50.9707L41.7144 50.8897C41.8471 50.5805 41.9134 50.2493 41.9134 49.918V17.7342C41.9134 17.4177 41.8544 17.1085 41.7365 16.8214L41.9134 16.7552L50.9448 9.82812C51.0628 10.1152 51.1218 10.4244 51.1218 10.7409Z" fill="url(#paint0_linear_1698_5778)"/>
<path d="M34.6288 58.1022L39.6569 67.8339C39.3767 67.937 39.0818 67.9885 38.7869 67.9885H11.1472C10.8154 67.9885 10.4836 67.9223 10.1887 67.7971L15.6592 58.1022L15.7624 57.874C16.0868 58.0213 16.448 58.1022 16.8093 58.1022H34.6288Z" fill="url(#paint1_linear_1698_5778)"/>
<path d="M9.21571 16.7552L9.39265 16.8214C9.27469 17.1159 9.21571 17.4324 9.21571 17.7489V49.7634C9.21571 50.0726 9.26732 50.3671 9.37791 50.6468L9.21571 50.7057L0.169569 57.4339C0.0589805 57.1542 0 56.8524 0 56.5432V10.7557C0 10.4318 0.0589806 10.1226 0.176942 9.82812L9.21571 16.7552Z" fill="url(#paint2_linear_1698_5778)"/>
<path d="M41.1315 0.176672L35.5873 9.88629L34.7616 9.90101H34.7395C34.6584 9.90101 34.5699 9.88629 34.4814 9.88629H16.7504C16.4039 9.88629 16.0648 9.9599 15.7477 10.0924L15.6593 9.88629L10.1741 0.176672C10.4616 0.0588908 10.7786 0 11.0956 0H40.2025C40.5269 0 40.8366 0.0588908 41.1315 0.176672Z" fill="url(#paint3_linear_1698_5778)"/>
<path d="M50.9443 9.82748L41.9129 16.7545L41.7359 16.8208C41.6253 16.5337 41.4558 16.2687 41.242 16.0331L36.3318 10.6961C35.9263 10.2471 35.3587 9.96735 34.7615 9.90109L35.5872 9.88637L41.1314 0.176758C41.441 0.294539 41.7286 0.478573 41.9718 0.721497L50.3618 8.94412C50.6199 9.20177 50.8189 9.50358 50.9443 9.82748Z" fill="url(#paint4_linear_1698_5778)"/>
<path d="M15.6594 9.88637L15.7479 10.0925C15.4309 10.2324 15.1507 10.4237 14.9074 10.6814L9.89405 16.0257C9.68025 16.2613 9.5033 16.5337 9.39272 16.8208L9.21577 16.7545L0.177002 9.82748C0.309708 9.49622 0.508768 9.1944 0.77418 8.94412L9.34848 0.706775C9.5844 0.471212 9.86456 0.294539 10.1742 0.176758L15.6594 9.88637Z" fill="url(#paint5_linear_1698_5778)"/>
<path d="M15.7624 57.8753L15.6592 58.1035L10.1888 67.7984C9.87174 67.6659 9.57683 67.4745 9.33354 67.2242L0.707631 58.2949C0.471709 58.0446 0.287395 57.7502 0.169434 57.4336L9.21558 50.7054L9.37778 50.6465C9.48099 50.9262 9.63581 51.1912 9.83487 51.4194L14.9072 57.2422C15.1505 57.5146 15.438 57.7281 15.7624 57.8753Z" fill="url(#paint6_linear_1698_5778)"/>
<path d="M41.9132 50.9706L50.9225 57.7799C50.7751 58.1259 50.5539 58.435 50.2737 58.6853L40.4608 67.357C40.2249 67.5705 39.9521 67.7324 39.6572 67.8355L34.6291 58.1038H33.6265C34.2826 58.0964 34.9019 57.8388 35.3664 57.3824L41.1539 51.7141C41.3972 51.4712 41.5888 51.1915 41.7142 50.8896L41.9132 50.9706Z" fill="url(#paint7_linear_1698_5778)"/>
<path d="M41.9132 17.7339V49.9177C41.9132 50.249 41.8468 50.5802 41.7141 50.8894C41.5888 51.1912 41.3971 51.471 41.1538 51.7139L35.3663 57.3821C34.9019 57.8385 34.2826 58.0962 33.6264 58.1035H16.8096C16.4483 58.1035 16.0871 58.0226 15.7627 57.8753C15.4383 57.7281 15.1507 57.5146 14.9074 57.2423L9.83512 51.4194C9.63606 51.1912 9.48123 50.9262 9.37802 50.6465C9.26743 50.3668 9.21582 50.0723 9.21582 49.7631V17.7486C9.21582 17.4321 9.2748 17.1156 9.39276 16.8211C9.50335 16.534 9.68029 16.2616 9.8941 16.0261L14.9074 10.6817C15.1507 10.4241 15.4309 10.2327 15.7479 10.0928C16.0649 9.96033 16.4041 9.88672 16.7506 9.88672H34.4816C34.5701 9.88672 34.6586 9.89408 34.7397 9.90144H34.7618C35.359 9.96769 35.9266 10.2474 36.3321 10.6965L41.2423 16.0334C41.4561 16.269 41.6256 16.534 41.7362 16.8211C41.8542 17.1082 41.9132 17.4174 41.9132 17.7339Z" fill="url(#paint8_linear_1698_5778)"/>
<defs>
<linearGradient id="paint0_linear_1698_5778" x1="41.7208" y1="27.4275" x2="71.0798" y2="42.4933" gradientUnits="userSpaceOnUse">
<stop stop-color="#FF3542"/>
<stop offset="1" stop-color="white"/>
</linearGradient>
<linearGradient id="paint1_linear_1698_5778" x1="20.8603" y1="57.9449" x2="26.6549" y2="84.5998" gradientUnits="userSpaceOnUse">
<stop stop-color="#FF3542"/>
<stop offset="1" stop-color="white"/>
</linearGradient>
<linearGradient id="paint2_linear_1698_5778" x1="11.5891" y1="25.496" x2="-4.24933" y2="67.603" gradientUnits="userSpaceOnUse">
<stop stop-color="#FF3542"/>
<stop offset="1" stop-color="white"/>
</linearGradient>
<linearGradient id="paint3_linear_1698_5778" x1="29.7454" y1="-1.15891" x2="22.0193" y2="20.0877" gradientUnits="userSpaceOnUse">
<stop stop-color="#FF3542"/>
<stop offset="1" stop-color="white"/>
</linearGradient>
<linearGradient id="paint4_linear_1698_5778" x1="37.8576" y1="10.4304" x2="57.9453" y2="0.000203203" gradientUnits="userSpaceOnUse">
<stop stop-color="#FF7380"/>
<stop offset="1" stop-color="white"/>
</linearGradient>
<linearGradient id="paint5_linear_1698_5778" x1="13.1344" y1="8.49886" x2="3.09049" y2="21.6332" gradientUnits="userSpaceOnUse">
<stop stop-color="#FF7380"/>
<stop offset="1" stop-color="white"/>
</linearGradient>
<linearGradient id="paint6_linear_1698_5778" x1="5.40829" y1="56.014" x2="11.5891" y2="75.3291" gradientUnits="userSpaceOnUse">
<stop stop-color="#FF7380"/>
<stop offset="1" stop-color="white"/>
</linearGradient>
<linearGradient id="paint7_linear_1698_5778" x1="36.6988" y1="57.1731" x2="47.1289" y2="75.3293" gradientUnits="userSpaceOnUse">
<stop stop-color="#FF7380"/>
<stop offset="1" stop-color="white"/>
</linearGradient>
<linearGradient id="paint8_linear_1698_5778" x1="55.2413" y1="75.3288" x2="1.14336e-05" y2="-5.40845" gradientUnits="userSpaceOnUse">
<stop stop-color="#FB5E6C"/>
<stop offset="1" stop-color="white"/>
</linearGradient>
</defs>
</svg>
