<svg width="302" height="44" viewBox="0 0 302 44" fill="none" xmlns="http://www.w3.org/2000/svg">
<rect width="302" height="44" rx="6" fill="#FEE500"/>
<path d="M116.623 17.1864C116.608 21.0609 115.422 24.496 110.632 26.8544L109.87 25.8143C112.243 24.6498 113.657 23.2362 114.433 21.5736L110.148 21.9764L109.943 20.7753L114.865 20.4457C115.063 19.7719 115.173 19.0614 115.224 18.3143H110.632V17.1864H116.623ZM118.63 28.9637V15.8534H120.021V21.0975H122.058V22.2401H120.021V28.9637H118.63ZM129.587 17.1864C129.572 21.0609 128.386 24.496 123.596 26.8544L122.834 25.8143C125.207 24.6498 126.621 23.2362 127.397 21.5736L123.112 21.9764L122.907 20.7753L127.829 20.4457C128.027 19.7719 128.137 19.0614 128.188 18.3143H123.596V17.1864H129.587ZM131.594 28.9637V15.8534H132.985V21.0975H135.021V22.2401H132.985V28.9637H131.594ZM141.701 16.6444C144.506 16.6517 146.55 18.036 146.55 20.1307C146.55 22.0936 144.836 23.4047 142.39 23.6024V26.1805H147.736V27.3378H135.725V26.1805H141.013V23.6024C138.581 23.4047 136.86 22.0936 136.867 20.1307C136.86 18.036 138.911 16.6517 141.701 16.6444ZM138.215 20.1307C138.215 21.6029 139.68 22.5184 141.701 22.5331C143.737 22.5184 145.195 21.6029 145.202 20.1307C145.195 18.7098 143.737 17.7723 141.701 17.787C139.68 17.7723 138.215 18.7098 138.215 20.1307ZM160.7 26.2391V27.411H148.688V26.2391H153.977V23.9393H150.153V19.7645H157.858V17.9188H150.124V16.7762H159.235V20.8778H151.53V22.7968H159.543V23.9393H155.354V26.2391H160.7ZM170.134 19.1932C170.119 21.5883 171.569 24.0052 173.605 24.9061L172.771 26.0048C171.262 25.287 170.068 23.8148 169.453 22.0204C168.845 23.9467 167.636 25.5287 166.062 26.2977L165.212 25.1259C167.277 24.2103 168.728 21.6981 168.728 19.1932V16.952H170.134V19.1932ZM174.792 29.0077V15.8534H176.184V29.0077H174.792ZM182.863 18.2118C182.856 19.889 184.021 21.4784 186.027 22.1522L185.324 23.2362C183.837 22.7235 182.746 21.6981 182.175 20.4091C181.604 21.8226 180.461 22.9432 178.923 23.4852L178.176 22.4012C180.227 21.7054 181.464 20.0062 181.472 18.1971V17.8456H178.586V16.7177H185.69V17.8456H182.863V18.2118ZM179.919 25.536V24.4081H188.591V28.9784H187.199V25.536H179.919ZM187.199 23.7635V15.8534H188.591V19.2225H190.495V20.3944H188.591V23.7635H187.199ZM201.467 15.8534V21.1708H203.576V22.328H201.467V28.9784H200.09V15.8534H201.467ZM191.169 19.0468V17.9042H194.406V16.0292H195.798V17.9042H198.947V19.0468H191.169ZM191.843 23.0604C191.843 21.2733 193.22 20.0135 195.109 20.0135C196.992 20.0135 198.369 21.2733 198.376 23.0604C198.369 24.8622 196.992 26.1146 195.109 26.1219C193.22 26.1146 191.843 24.8622 191.843 23.0604ZM193.176 23.0604C193.168 24.203 193.989 24.9647 195.109 24.9501C196.223 24.9647 197.036 24.203 197.043 23.0604C197.036 21.9398 196.223 21.1635 195.109 21.1561C193.989 21.1635 193.168 21.9398 193.176 23.0604ZM215.119 15.8534V28.9784H213.713V15.8534H215.119ZM204.338 25.4628C207.824 23.8002 209.531 21.4344 209.802 18.3729H204.968V17.2596H211.208C211.208 21.1049 209.575 24.4301 205.07 26.5907L204.338 25.4628Z" fill="black"/>
<ellipse cx="25.7727" cy="21.75" rx="9.05544" ry="7.08336" fill="#181600"/>
<path d="M18.2937 31.8612L19.4635 26.0601L23.4363 28.7503L18.2937 31.8612Z" fill="#181600"/>
</svg>
