<svg width="215" height="131" viewBox="0 0 215 131" fill="none" xmlns="http://www.w3.org/2000/svg">
<path fill-rule="evenodd" clip-rule="evenodd" d="M51 0C46.5817 0 43 3.58172 43 8V29V84V123C43 127.418 46.5817 131 51 131H203C207.418 131 211 127.418 211 123V29C211 24.5817 207.418 21 203 21H130.603L124.476 5.12001C123.285 2.03476 120.319 0 117.012 0H51Z" fill="#A0C8FF"/>
<rect y="89.1989" width="98.6981" height="36.7249" rx="18.3624" transform="rotate(-15.3933 0 89.1989)" fill="#7241FF"/>
<path d="M37.9594 94.896C38.6092 97.2562 37.3464 99.6617 34.9597 100.335L32.4298 101.032L33.2537 104.025L31.2946 104.564L28.1093 92.9944L32.5983 91.7585C34.9893 91.1002 37.3096 92.5358 37.9594 94.896ZM31.9796 99.3968L34.4323 98.7215C35.7436 98.3605 36.4038 96.9009 36.0003 95.4354C35.6011 93.9853 34.2825 93.0539 32.9713 93.4149L30.5186 94.0902L31.9796 99.3968ZM43.8178 93.2333L43.8735 94.7613C43.7357 94.6831 43.2748 94.3951 42.6423 94.5692C41.2385 94.9557 41.257 96.2285 41.7242 97.9253L42.6883 101.427L40.8372 101.937L38.6924 94.1465L40.5435 93.6369L40.9003 94.9327C40.8885 94.1062 41.3707 93.3262 42.4351 93.0331C43.0059 92.876 43.4861 92.9927 43.8178 93.2333ZM47.6901 91.5863C49.8806 90.9832 52.1426 92.0864 52.7966 94.462C53.4507 96.8376 52.0678 98.9276 49.8773 99.5307C47.6869 100.134 45.4137 99.0503 44.7596 96.6747C44.1056 94.2991 45.4996 92.1894 47.6901 91.5863ZM48.0978 93.0672C46.8329 93.4155 46.1972 94.6028 46.6262 96.1608C47.0509 97.7034 48.2004 98.3827 49.4654 98.0344C50.7149 97.6904 51.3702 96.5142 50.9455 94.9716C50.5165 93.4136 49.3473 92.7232 48.0978 93.0672ZM53.7316 87.0354C53.8802 87.5753 53.5826 88.1219 53.0273 88.2748C52.4874 88.4234 51.9365 88.1104 51.7879 87.5705C51.6477 87.0615 51.9565 86.4952 52.4964 86.3465C53.0517 86.1937 53.5914 86.5263 53.7316 87.0354ZM53.8086 100.938L53.8437 99.7995C54.6749 99.9855 55.1654 99.7177 54.8469 98.5608L52.579 90.3233L54.4301 89.8136L56.6343 97.8197C57.0675 99.3932 56.8265 100.688 55.5153 101.049C54.9291 101.21 54.2989 101.151 53.8086 100.938ZM63.8561 91.3507L64.06 92.0911L58.3018 93.6599C58.6118 94.786 59.8477 95.1759 60.8967 94.8871C61.6834 94.6705 62.3389 94.1581 62.7637 93.4106L64.1435 94.1426C63.6181 95.0672 62.7741 95.98 61.2624 96.3962C58.8713 97.0545 56.9163 95.8005 56.2962 93.5483C55.6719 91.2806 56.7766 89.0846 59.0288 88.4645C61.3119 87.836 63.2403 89.1139 63.8561 91.3507ZM57.9435 92.2982L61.8308 91.2279C61.5293 90.1326 60.5164 89.6481 59.4365 89.9454C58.3876 90.2342 57.6589 91.2646 57.9435 92.2982ZM70.6172 91.1488L72.1374 91.9085C71.6459 92.9565 70.7765 93.7768 69.5115 94.125C67.3056 94.7324 65.0644 93.5239 64.4401 91.2563C63.8158 88.9887 65.1184 86.788 67.3243 86.1806C68.5892 85.8324 69.756 86.092 70.7146 86.7408L69.7975 88.1715C69.1521 87.6356 68.4262 87.4704 67.7783 87.6488C66.5442 87.9885 65.892 89.2966 66.2912 90.7466C66.6862 92.1813 67.9118 92.9557 69.1458 92.616C69.7937 92.4376 70.3455 91.9704 70.6172 91.1488ZM76.913 90.3613L77.2783 91.688C76.9968 91.9314 76.676 92.1525 76.0126 92.3351C74.6089 92.7216 73.8338 91.9559 73.2477 89.8271L72.3261 86.4797L71.4314 86.726L71.0237 85.2451L71.9184 84.9988L71.4002 83.1168L73.2668 82.6029L73.7849 84.4849L75.1887 84.0984L75.5964 85.5793L74.1926 85.9658L75.0421 89.051C75.437 90.4856 75.7288 91.0027 76.913 90.3613Z" fill="white"/>
<path d="M19.1371 46.3256C17.5759 41.1869 21.421 36 26.7916 36H171.605C174.877 36 177.819 37.9923 179.034 41.0304L210.615 120.03C212.715 125.285 208.845 131 203.186 131H50.7931C47.2706 131 44.1626 128.696 43.1386 125.326L19.1371 46.3256Z" fill="url(#paint0_linear_465_956)" fill-opacity="0.8"/>
<defs>
<linearGradient id="paint0_linear_465_956" x1="54.9899" y1="-2.29851" x2="158.777" y2="149.652" gradientUnits="userSpaceOnUse">
<stop stop-color="#FF8DE2"/>
<stop offset="1" stop-color="#95C0FF"/>
</linearGradient>
</defs>
</svg>
