<svg width="144" height="144" viewBox="0 0 144 144" fill="none" xmlns="http://www.w3.org/2000/svg">
<rect width="144" height="144" rx="16" fill="#CAE1FF"/>
<path d="M18.8438 32H16.3125L20.2344 20.6875H23.25L27.1562 32H24.6406L23.7969 29.3906H19.7031L18.8438 32ZM20.2969 27.5625H23.2031L21.7812 23.2344H21.7031L20.2969 27.5625ZM30.4613 20.6875V32H28.1175V20.6875H30.4613ZM44.5319 30.2188V31.8594H31.5162V30.2188H37.0006V28.0781H33.0162V23.2969H41.0631V21.7344H33.0006V20.1406H43.0319V24.8594H35.0162V26.4531H43.36V28.0781H38.985V30.2188H44.5319ZM55.5481 20.4688V22.0938H51.0794V28.4062C53.1497 28.3828 54.6419 28.2891 56.3137 27.9844L56.5169 29.5938C54.5637 29.9688 52.845 30.0469 50.22 30.0312H49.0637V20.4688H55.5481ZM60.4075 19.2188V33.4688H58.4231V25.7656H54.845V24.1406H58.4231V19.2188H60.4075ZM69.3925 31.7031H75.2363V30.7031H69.3925V31.7031ZM77.205 19.2344V27.4219H75.2206V19.2344H77.205ZM65.2831 25.2031C67.9394 25.2031 71.3925 25.2031 74.4394 24.8281L74.5331 26.2344C73.4394 26.4219 72.3144 26.5469 71.205 26.625V28.2969H69.3925V29.2031H75.2363V28H77.205V33.2812H67.4238V28H69.2206V26.7344C67.9003 26.7891 66.6425 26.7969 65.5175 26.7969L65.2831 25.2031ZM71.1269 20.1562C71.1269 21.3594 72.1581 22.5 74.3613 22.9219L73.5175 24.4219C71.8925 24.0938 70.7519 23.3359 70.1269 22.3125C69.5097 23.4297 68.3534 24.2734 66.6581 24.6406L65.7831 23.125C68.0331 22.6719 69.0644 21.4531 69.08 20.1562V19.5781H71.1269V20.1562ZM91.1037 19.2188V33.4375H89.2287V19.2188H91.1037ZM88.0725 19.5312V32.8125H86.2131V26.2812H83.885C83.0725 27.9062 81.7522 29.3125 79.7287 30.4844L78.6037 29.0781C81.4709 27.375 82.7366 25.3047 83.01 22.5156H79.385V20.9062H84.9944C84.9866 22.2578 84.8459 23.5312 84.51 24.7031H86.2131V19.5312H88.0725ZM24.5 41.0469V42.6406H21.6719C21.6875 44.3047 22.6719 46.0078 24.9844 46.75L23.9688 48.2969C22.3906 47.7891 21.3047 46.7734 20.6875 45.5C20.0547 46.8906 18.9219 47.9922 17.2656 48.5312L16.2031 47C18.5547 46.2422 19.625 44.4219 19.6562 42.6406H16.75V41.0469H24.5ZM27.7031 40.2188V43.6719H29.625V45.3281H27.7031V48.7969H25.7031V40.2188H27.7031ZM27.7031 49.4062V54.4375H25.7031V50.9844H18.125V49.4062H27.7031ZM35.305 42.1562C35.2894 44.0625 36.2738 45.8125 38.555 46.5156L37.5081 48.0781C35.9769 47.5469 34.9378 46.5625 34.3519 45.2812C33.7113 46.7656 32.5628 47.9375 30.8519 48.5156L29.805 46.9219C32.2425 46.1406 33.2738 44.2344 33.2894 42.25V40.9531H35.305V42.1562ZM41.9144 40.2188V48.5469H39.93V44.4531H37.2581V42.8281H39.93V40.2188H41.9144ZM37.055 48.9219C40.0863 48.9219 41.9456 49.9375 41.9613 51.6875C41.9456 53.4375 40.0863 54.4375 37.055 54.4375C34.0238 54.4375 32.1644 53.4375 32.1644 51.6875C32.1644 49.9375 34.0238 48.9219 37.055 48.9219ZM37.055 50.4688C35.1644 50.4688 34.1488 50.875 34.1488 51.6875C34.1488 52.4688 35.1644 52.8906 37.055 52.8906C38.9456 52.8906 39.9769 52.4688 39.9769 51.6875C39.9769 50.875 38.9456 50.4688 37.055 50.4688ZM54.6569 40.2188V45.7812H56.7506V47.4219H54.6569V54.4375H52.6881V40.2188H54.6569ZM51.7194 42.3438V43.9375H43.36V42.3438H46.5788V40.4375H48.5788V42.3438H51.7194ZM47.5788 44.7344C49.6569 44.7344 51.2038 46.1406 51.2038 48.125C51.2038 50.1094 49.6569 51.5156 47.5788 51.5156C45.485 51.5156 43.9381 50.1094 43.9381 48.125C43.9381 46.1406 45.485 44.7344 47.5788 44.7344ZM47.5788 46.3438C46.5788 46.3594 45.8444 47.0312 45.8444 48.125C45.8444 49.2344 46.5788 49.8906 47.5788 49.875C48.5788 49.8906 49.2975 49.2344 49.2975 48.125C49.2975 47.0312 48.5788 46.3594 47.5788 46.3438ZM68.4931 44.0938V45.6562H58.5556V40.7188H60.54V44.0938H68.4931ZM69.9463 47.1875V48.75H56.9306V47.1875H69.9463ZM68.5869 52.5312V54.125H58.4306V49.9062H60.4306V52.5312H68.5869ZM79.0719 44.0938C79.0563 46.2656 80.2125 48.7656 82.5563 49.8438L81.4469 51.4062C79.8609 50.6797 78.7281 49.2266 78.1031 47.5156C77.4625 49.3984 76.2984 50.9922 74.65 51.7656L73.4938 50.1875C75.8688 49.0781 77.0563 46.4375 77.0719 44.0938V43.2188H74.0563V41.5938H81.9313V43.2188H79.0719V44.0938ZM85.0406 40.2188V45.6406H87.1344V47.3125H85.0406V54.4375H83.0406V40.2188H85.0406ZM100.346 51.1406V52.7344H87.33V51.1406H92.7675V47.9219H94.7519V51.1406H100.346ZM94.8144 42.0469C94.8144 44.0781 96.6425 46.2188 99.8925 46.7188L99.0488 48.375C96.5488 47.9219 94.6894 46.5859 93.7519 44.8125C92.8144 46.5781 90.9706 47.9297 88.4863 48.375L87.6425 46.7188C90.8613 46.2188 92.6738 44.0625 92.6894 42.0469V41.0312H94.8144V42.0469ZM106.213 43.4375C106.213 46.1094 107.291 48.7031 109.666 49.7344L108.448 51.3281C106.869 50.5547 105.815 49.1406 105.229 47.3906C104.604 49.25 103.51 50.7734 101.885 51.5781L100.635 49.9531C103.073 48.8594 104.182 46.1094 104.198 43.4375V41.3125H106.213V43.4375ZM112.838 40.2188V54.4688H110.869V46.2969H108.073V44.6875H110.869V40.2188H112.838Z" fill="#202124"/>
<rect x="82.4023" y="72" width="38" height="50" rx="8" transform="rotate(12.0079 82.4023 72)" fill="#FFE1F7"/>
<path d="M88.0938 86.5088L109.094 90.5088" stroke="#FF9EE6" stroke-width="3" stroke-linecap="round"/>
<path d="M86.0938 97.5088L107.094 101.509" stroke="#FF9EE6" stroke-width="3" stroke-linecap="round"/>
<path d="M84.0938 108.509L105.094 112.509" stroke="#FF9EE6" stroke-width="3" stroke-linecap="round"/>
</svg>
