<svg width="250" height="117" viewBox="0 0 250 117" fill="none" xmlns="http://www.w3.org/2000/svg">
<path d="M36.5875 78.2969C38.7125 78.2969 40.2438 80.2344 40.2594 83.2812C40.2438 86.3516 38.7125 88.2812 36.5875 88.2812C34.4391 88.2812 32.9078 86.3516 32.9156 83.2812C32.9078 80.2344 34.4391 78.2969 36.5875 78.2969ZM34.5875 83.2812C34.5797 85.4531 35.4 86.7109 36.5875 86.7188C37.7828 86.7109 38.5797 85.4531 38.5875 83.2812C38.5797 81.125 37.7828 79.8594 36.5875 79.8594C35.4 79.8594 34.5797 81.125 34.5875 83.2812ZM42.1188 91.3906V77.2656H43.8531V82.6875H46.025V84.1562H43.8531V91.3906H42.1188ZM51.6581 79.7188C51.6581 81.4609 52.8613 83.2031 55.1113 83.9062L54.2206 85.25C52.6191 84.7344 51.455 83.6719 50.8066 82.3281C50.1738 83.7891 48.9706 84.9531 47.2988 85.5156L46.4081 84.1719C48.6816 83.4062 49.8925 81.5703 49.9081 79.7188V79.5469H46.8613V78.1562H54.6269V79.5469H51.6581V79.7188ZM48.4238 87.8438V86.4375H58.0644V91.3906H56.3144V87.8438H48.4238ZM56.3144 85.7812V77.2656H58.0644V85.7812H56.3144ZM75.1275 77.2656V91.4062H73.3931V83.6875H70.6744V82.2656H73.3931V77.2656H75.1275ZM63.0963 87.3438C65.3541 86.2734 66.69 83.6016 66.7056 81.0156V80.0781H63.6744V78.6562H71.5025V80.0781H68.4713V81.0156C68.4713 83.4609 69.7916 86.0391 72.065 87.0312L71.0338 88.4219C69.3931 87.6406 68.2213 86.0703 67.6041 84.2031C66.9869 86.1953 65.7838 87.875 64.1431 88.7031L63.0963 87.3438ZM81.8544 79.8125C81.8544 81.5391 82.9716 83.1641 85.1825 83.8438L84.3544 85.2031C82.7684 84.7031 81.6434 83.6953 81.0263 82.4219C80.4013 83.9062 79.2138 85.0859 77.5106 85.6562L76.6356 84.2812C78.9091 83.5391 80.1044 81.7031 80.1044 79.8281V79.6562H77.12V78.25H84.7919V79.6562H81.8544V79.8125ZM78.5575 88.6719C78.5575 86.9844 80.3856 86 83.3388 86C86.2684 86 88.0653 86.9844 88.0731 88.6719C88.0653 90.375 86.2684 91.375 83.3388 91.375C80.3856 91.375 78.5575 90.375 78.5575 88.6719ZM80.2919 88.6719C80.2919 89.5469 81.4013 90.0078 83.3388 90.0156C85.2684 90.0078 86.3544 89.5469 86.3544 88.6719C86.3544 87.8125 85.2684 87.3594 83.3388 87.3594C81.4013 87.3594 80.2919 87.8125 80.2919 88.6719ZM86.1981 85.6875V77.2656H87.9325V80.6562H89.9013V82.0781H87.9325V85.6875H86.1981ZM101.441 77.2812V81.7188H103.409V83.1562H101.441V87.8281H99.7063V77.2812H101.441ZM90.3156 80.2344V78.8438H93.6438V77.2656H95.3781V78.8438H98.6906V80.2344H90.3156ZM91.0344 83.5156C91.0344 81.8906 92.4484 80.8125 94.5031 80.8125C96.5422 80.8125 97.9484 81.8906 97.9563 83.5156C97.9484 85.1328 96.5422 86.1875 94.5031 86.1875C92.4484 86.1875 91.0344 85.1328 91.0344 83.5156ZM92.3938 91.1094V87H94.1281V89.7031H102.003V91.1094H92.3938ZM92.7219 83.5156C92.7141 84.3672 93.4328 84.8516 94.5031 84.8438C95.5734 84.8516 96.3 84.3672 96.3 83.5156C96.3 82.6562 95.5734 82.1562 94.5031 82.1562C93.4328 82.1562 92.7141 82.6562 92.7219 83.5156ZM119.473 77.2656V91.3906H117.801V77.2656H119.473ZM107.426 83.375C107.426 80.2656 108.629 78.3359 110.473 78.3438C112.183 78.3359 113.348 79.9375 113.551 82.5781H114.91V77.5156H116.566V90.7031H114.91V83.9844H113.566C113.402 86.7422 112.223 88.4297 110.473 88.4219C108.629 88.4297 107.426 86.4922 107.426 83.375ZM109.035 83.375C109.027 85.5859 109.574 86.7734 110.473 86.7656C111.41 86.7734 111.965 85.5859 111.973 83.375C111.965 81.1719 111.41 79.9766 110.473 79.9844C109.574 79.9766 109.027 81.1719 109.035 83.375ZM132.59 77.2656V91.3906H130.84V77.2656H132.59ZM120.762 86.625C121.309 86.625 121.895 86.6172 122.512 86.6094V80.0625H121.137V78.6406H129.153V80.0625H127.793V86.3984C128.465 86.3438 129.137 86.2812 129.778 86.2031L129.871 87.5C126.84 87.9922 123.535 88.0469 120.934 88.0469L120.762 86.625ZM124.184 86.5781C124.809 86.5625 125.449 86.5391 126.09 86.5V80.0625H124.184V86.5781ZM147.208 88.2344V89.6406H134.301V88.2344H139.833V84.9688H141.551V88.2344H147.208ZM134.676 83.875C137.629 83.3984 139.747 81.2812 139.754 79.1562V78.125H141.598V79.1562C141.598 81.2891 143.731 83.3984 146.708 83.875L145.958 85.3125C143.575 84.8594 141.614 83.4922 140.676 81.6406C139.747 83.4844 137.809 84.8672 135.426 85.3125L134.676 83.875ZM159.278 83.8906V85.2812H149.372V78.5H159.169V79.9062H151.091V83.8906H159.278ZM147.809 89.5938V88.1562H160.716V89.5938H147.809ZM172.38 77.2656V82.7812H174.474V84.2344H172.38V91.3594H170.646V77.2656H172.38ZM161.239 87.5C164.677 85.7812 166.536 83.3906 166.88 80.1719H162.005V78.7344H168.646C168.638 82.8828 166.919 86.5312 162.224 88.8438L161.239 87.5ZM181.506 85.5312V87.0469H183.365V85.5312H184.974V90.0156C186.638 89.3125 187.396 87.8984 187.396 86.5469V85.4219H189.131V86.5469C189.123 88.0078 189.888 89.4375 191.631 90.0312L190.74 91.3281C189.49 90.875 188.693 90.0234 188.248 88.9531C187.779 89.9922 186.974 90.8594 185.802 91.3281L184.974 90.1016V91.2188H179.881V85.5312H181.506ZM178.49 81.125C178.49 79.1953 180.06 77.8359 182.224 77.8438C184.045 77.8359 185.482 78.8594 185.842 80.3906H188.396V77.2656H190.131V84.75H188.396V81.8281H185.849C185.506 83.3984 184.06 84.4375 182.224 84.4375C180.06 84.4375 178.49 83.0859 178.49 81.125ZM180.146 81.125C180.146 82.2656 181.006 83.0156 182.224 83.0156C183.412 83.0156 184.263 82.2656 184.271 81.125C184.263 80.0078 183.412 79.2734 182.224 79.2812C181.006 79.2734 180.146 80.0078 180.146 81.125ZM181.506 89.8906H183.365V88.3438H181.506V89.8906ZM195.67 78.2969C197.576 78.2969 198.99 79.8906 199.24 82.4688H201.936V77.2656H203.654V91.4062H201.936V83.875H199.256C199.068 86.6016 197.631 88.2812 195.67 88.2812C193.545 88.2812 192.037 86.3516 192.045 83.2812C192.037 80.2344 193.545 78.2969 195.67 78.2969ZM193.717 83.2812C193.709 85.4531 194.506 86.7109 195.67 86.7188C196.842 86.7109 197.631 85.4531 197.639 83.2812C197.631 81.125 196.842 79.8594 195.67 79.8594C194.506 79.8594 193.709 81.125 193.717 83.2812ZM218.225 88.25V89.6719H205.319V88.25H208.303V84.6797C207.178 84.0312 206.498 83.0156 206.506 81.7656C206.498 79.5156 208.702 78.0312 211.741 78.0312C214.795 78.0312 217.014 79.5156 217.006 81.7656C217.014 83 216.35 83.9922 215.256 84.6406V88.25H218.225ZM208.209 81.7656C208.202 83.2109 209.631 84.1328 211.741 84.125C213.842 84.1328 215.303 83.2109 215.303 81.7656C215.303 80.2969 213.842 79.3984 211.741 79.4062C209.631 79.3984 208.202 80.2969 208.209 81.7656ZM210.022 88.25H213.491V85.3047C212.952 85.4219 212.366 85.4844 211.741 85.4844C211.131 85.4844 210.553 85.4219 210.022 85.3125V88.25Z" fill="#202124"/>
<path d="M11.1067 101.953V114.107H10.0677V101.953H11.1067ZM0.839142 107.203C0.845978 104.619 1.87137 102.985 3.45047 102.979C4.92703 102.985 5.92508 104.407 6.0618 106.697H7.63406V102.213H8.65945V113.492H7.63406V107.586H6.06863C5.96609 109.951 4.94754 111.435 3.45047 111.428C1.87137 111.435 0.845978 109.787 0.839142 107.203ZM1.85086 107.203C1.83719 109.172 2.46609 110.416 3.45047 110.402C4.44168 110.416 5.07059 109.172 5.06375 107.203C5.07059 105.228 4.44168 103.99 3.45047 103.99C2.46609 103.99 1.83719 105.228 1.85086 107.203ZM22.5572 101.953V114.107H21.4771V101.953H22.5572ZM12.4947 110.184C13.0211 110.184 13.5884 110.177 14.1763 110.17V104.168H12.8091V103.279H19.7545V104.168H18.3736V110.013C19.0572 109.965 19.7339 109.903 20.3834 109.828L20.4517 110.635C17.7994 111.045 14.8668 111.086 12.6177 111.1L12.4947 110.184ZM15.2291 110.149C15.9127 110.136 16.6168 110.108 17.3209 110.074V104.168H15.2291V110.149ZM35.4569 111.633V112.521H24.328V111.633H29.3045V108.652H30.3573V111.633H35.4569ZM24.7655 107.9C26.8914 107.538 29.2567 105.761 29.2635 103.717V102.787H30.3846V103.717C30.3914 105.747 32.7909 107.538 34.91 107.9L34.4315 108.789C32.5789 108.406 30.6239 107.155 29.8377 105.405C29.0379 107.148 27.1034 108.406 25.244 108.789L24.7655 107.9ZM45.964 107.805V108.693H37.5695V103.088H45.8409V103.977H38.6359V107.805H45.964ZM36.1476 112.453V111.551H47.2765V112.453H36.1476ZM59.0824 107.6V108.447H47.9535V107.6H59.0824ZM49.2934 110.225V109.418H57.6879V112.002H50.3871V113.164H58.0844V113.943H49.307V111.264H56.6215V110.225H49.2934ZM49.3617 103.102V102.322H57.6469V104.838H50.4691V105.904H57.8656V106.684H49.4027V104.1H56.5668V103.102H49.3617ZM73.0966 101.953V114.135H72.0166V107.271H69.3505V106.383H72.0166V101.953H73.0966ZM62.9111 110.867C64.6748 110.013 66.1445 107.723 66.1513 105.562V104.1H63.3759V103.211H70.0205V104.1H67.2314V105.562C67.2382 107.586 68.6875 109.787 70.458 110.594L69.8154 111.455C68.4277 110.771 67.2588 109.302 66.705 107.606C66.1582 109.411 64.955 110.977 63.5673 111.701L62.9111 110.867ZM78.9553 104.264C78.9622 105.856 80.1516 107.278 81.9358 107.859L81.4299 108.707C80.0286 108.242 78.969 107.278 78.4426 106.055C77.9231 107.449 76.802 108.536 75.3459 109.062L74.7991 108.201C76.6174 107.586 77.8889 106.021 77.9026 104.264V103.744H75.1272V102.855H81.6897V103.744H78.9553V104.264ZM76.4123 111.838C76.4192 110.437 77.9436 109.623 80.4455 109.623C82.9407 109.623 84.4514 110.437 84.4514 111.838C84.4514 113.26 82.9407 114.08 80.4455 114.08C77.9436 114.08 76.4192 113.26 76.4123 111.838ZM77.4924 111.838C77.4788 112.713 78.6135 113.226 80.4455 113.219C82.2844 113.226 83.4055 112.713 83.4123 111.838C83.4055 110.99 82.2844 110.484 80.4455 110.484C78.6135 110.484 77.4788 110.99 77.4924 111.838ZM83.2756 109.295V101.953H84.342V105.057H86.1741V105.959H84.342V109.295H83.2756ZM96.0659 101.953V106.971H98.1031V107.859H96.0659V114.107H94.9995V101.953H96.0659ZM86.5913 104.797V103.908H89.7222V102.104H90.7886V103.908H93.8238V104.797H86.5913ZM87.2886 108.598C87.2818 106.957 88.5396 105.809 90.2691 105.809C91.9849 105.809 93.2359 106.957 93.2495 108.598C93.2359 110.245 91.9849 111.387 90.2691 111.387C88.5396 111.387 87.2818 110.245 87.2886 108.598ZM88.314 108.598C88.3072 109.705 89.1343 110.484 90.2691 110.471C91.3902 110.484 92.2105 109.705 92.2241 108.598C92.2105 107.497 91.3902 106.704 90.2691 106.711C89.1343 106.704 88.3072 107.497 88.314 108.598ZM108.227 103.184V104.4C108.214 105.891 108.214 107.559 107.776 110.006L106.682 109.883C107.14 107.559 107.14 105.856 107.147 104.4V104.072H99.6551V103.184H108.227ZM98.4793 112.385V111.496H102.827V107.148H103.88V111.496H109.554V112.385H98.4793ZM124.908 106.807V107.709H122.939V114.107H121.872V101.953H122.939V106.807H124.908ZM114.038 111.018V103.156H115.105V110.115C116.882 110.115 118.694 109.979 120.697 109.555L120.833 110.471C118.735 110.895 116.848 111.018 115.009 111.018H114.038ZM131.491 103.061V108.652H125.872V103.061H131.491ZM126.924 107.791H130.452V103.936H126.924V107.791ZM127.253 113.848V110.02H128.305V112.945H135.415V113.848H127.253ZM133.788 110.867V101.953H134.854V105.658H136.686V106.561H134.854V110.867H133.788ZM141.15 102.842C143.058 102.849 144.411 104.011 144.418 105.699C144.411 107.395 143.058 108.55 141.15 108.557C139.229 108.55 137.862 107.395 137.869 105.699C137.862 104.011 139.229 102.849 141.15 102.842ZM137.24 110.539C139.482 110.546 142.579 110.525 145.266 110.129L145.348 110.922C142.565 111.441 139.578 111.455 137.391 111.455L137.24 110.539ZM138.922 105.699C138.915 106.834 139.851 107.613 141.15 107.613C142.435 107.613 143.372 106.834 143.365 105.699C143.372 104.571 142.435 103.785 141.15 103.785C139.851 103.785 138.915 104.571 138.922 105.699ZM146.072 114.135V101.953H147.139V114.135H146.072ZM163.354 111.66V112.549H152.225V111.66H157.229V109.035H153.538V102.814H154.618V105.016H160.934V102.814H161.987V109.035H158.282V111.66H163.354ZM154.618 108.16H160.934V105.891H154.618V108.16ZM168.187 103.908C168.18 105.583 169.431 107.128 171.195 107.736L170.607 108.598C169.261 108.099 168.201 107.066 167.681 105.768C167.169 107.203 166.075 108.324 164.646 108.885L164.058 107.996C165.904 107.347 167.121 105.74 167.135 103.867V102.582H168.187V103.908ZM165.945 110.676V109.814H174.121V114.107H173.041V110.676H165.945ZM170.334 105.412V104.51H173.041V101.953H174.121V109.145H173.041V105.412H170.334ZM181.401 102.172C184.102 102.172 185.688 102.917 185.694 104.264C185.688 105.645 184.102 106.39 181.401 106.396C178.688 106.39 177.095 105.645 177.095 104.264C177.095 102.917 178.688 102.172 181.401 102.172ZM175.864 108.092V107.217H186.939V108.092H175.864ZM177.204 109.965V109.145H185.517V111.865H178.298V113.123H185.886V113.971H177.231V111.072H184.464V109.965H177.204ZM178.216 104.264C178.202 105.111 179.385 105.576 181.401 105.576C183.418 105.576 184.594 105.111 184.601 104.264C184.594 103.464 183.418 102.985 181.401 102.979C179.385 102.985 178.202 103.464 178.216 104.264ZM195.06 104.496C195.067 105.952 196.284 107.285 198.082 107.818L197.576 108.639C196.174 108.215 195.087 107.312 194.547 106.157C194.021 107.429 192.893 108.413 191.451 108.885L190.918 108.037C192.729 107.49 194.001 106.096 194.007 104.496V104.264H191.259V103.375H194.007V101.898H195.087V103.375H197.808V104.264H195.06V104.496ZM192.148 113.232C194.103 112.918 195.88 111.852 196.058 110.553H192.627V109.678H200.638V110.553H197.193C197.364 111.824 199.155 112.918 201.103 113.232L200.707 114.066C198.929 113.772 197.316 112.891 196.619 111.674C195.928 112.884 194.322 113.752 192.558 114.053L192.148 113.232ZM199.353 109.021V101.953H200.42V104.961H202.252V105.863H200.42V109.021H199.353ZM205.991 102.896C207.782 102.903 209.054 104.551 209.067 107.135C209.054 109.726 207.782 111.366 205.991 111.359C204.186 111.366 202.922 109.726 202.929 107.135C202.922 104.551 204.186 102.903 205.991 102.896ZM203.94 107.135C203.947 109.11 204.788 110.409 205.991 110.402C207.208 110.409 208.028 109.11 208.028 107.135C208.028 105.159 207.208 103.86 205.991 103.854C204.788 103.86 203.947 105.159 203.94 107.135ZM211.077 114.107V101.953H212.143V106.807H214.181V107.736H212.143V114.107H211.077ZM225.686 111.66V112.549H214.557V111.66H219.561V109.035H215.869V102.814H216.949V105.016H223.266V102.814H224.319V109.035H220.613V111.66H225.686ZM216.949 108.16H223.266V105.891H216.949V108.16ZM229.986 105.412C229.986 107.347 230.929 109.432 232.542 110.389L231.927 111.223C230.751 110.512 229.911 109.213 229.487 107.729C229.042 109.35 228.14 110.744 226.923 111.482L226.24 110.676C227.921 109.691 228.947 107.538 228.947 105.453V103.102H229.986V105.412ZM231.203 107.23V106.314H233.267V102.213H234.279V113.492H233.267V107.23H231.203ZM235.755 114.107V101.953H236.794V114.107H235.755ZM249.325 111.646V112.549H238.196V111.646H240.958V108.372C239.919 107.832 239.29 106.957 239.29 105.85C239.29 103.97 241.135 102.732 243.733 102.719C246.331 102.732 248.176 103.97 248.176 105.85C248.176 106.937 247.568 107.798 246.563 108.338V111.646H249.325ZM240.329 105.85C240.322 107.21 241.737 108.119 243.733 108.119C245.709 108.119 247.137 107.21 247.137 105.85C247.137 104.489 245.709 103.594 243.733 103.607C241.737 103.594 240.322 104.489 240.329 105.85ZM242.01 111.646H245.483V108.755C244.957 108.892 244.369 108.967 243.733 108.967C243.111 108.967 242.53 108.898 242.01 108.762V111.646Z" fill="#7F868C"/>
<path fill-rule="evenodd" clip-rule="evenodd" d="M93.6646 0C89.9838 0 87 2.99868 87 6.69774V16.3162V35.4396V56.6511C87 58.5007 88.4919 60 90.3323 60L160.501 60C161.881 60 163 58.8755 163 57.4883V16.3162C163 12.6171 160.016 9.6184 156.335 9.6184L126.63 9.6184L124.604 4.30208C123.616 1.71091 121.141 0 118.38 0L93.6646 0Z" fill="#B9D6FF"/>
<path d="M75.1479 20.3691C74.4901 18.1949 76.109 16 78.3702 16L143.528 16C146.283 16 148.759 17.6851 149.782 20.255L163.756 55.3583C164.641 57.5815 163.011 60 160.629 60L89.6336 60C88.1508 60 86.8425 59.0255 86.4112 57.5999L75.1479 20.3691Z" fill="url(#paint0_linear_1244_4750)" fill-opacity="0.8"/>
<path d="M176 46.5C176 57.2696 167.046 66 156 66C144.954 66 136 57.2696 136 46.5C136 35.7304 144.954 27 156 27C167.046 27 176 35.7304 176 46.5Z" fill="#8162FF"/>
<path d="M157.705 51.1748H154.322L154.107 37H157.866L157.705 51.1748ZM155.987 57C154.886 57 154 56.0846 154 54.9196C154 53.7822 154.886 52.8946 155.987 52.8946C157.114 52.8946 158 53.7822 158 54.9196C158 56.0846 157.114 57 155.987 57Z" fill="url(#paint1_linear_1244_4750)"/>
<defs>
<linearGradient id="paint0_linear_1244_4750" x1="91.808" y1="-1.73826" x2="139.952" y2="68.4481" gradientUnits="userSpaceOnUse">
<stop stop-color="#FF9EE6"/>
<stop offset="1" stop-color="#95C0FF"/>
</linearGradient>
<linearGradient id="paint1_linear_1244_4750" x1="156" y1="37" x2="156.027" y2="49.1713" gradientUnits="userSpaceOnUse">
<stop stop-color="#F9FBFD"/>
<stop offset="1" stop-color="white"/>
</linearGradient>
</defs>
</svg>
