<svg width="22" height="21" viewBox="0 0 22 21" fill="none" xmlns="http://www.w3.org/2000/svg">
<path fill-rule="evenodd" clip-rule="evenodd" d="M0 5.54701C0 2.48348 2.48348 0 5.54701 0H16.453C19.5165 0 22 2.48348 22 5.54701V6.29915C22 6.87031 21.537 7.33333 20.9658 7.33333C20.3946 7.33333 19.9316 6.87031 19.9316 6.29915V5.54701C19.9316 3.62581 18.3742 2.06838 16.453 2.06838H5.54701C3.62581 2.06838 2.06838 3.62581 2.06838 5.54701V6.29915C2.06838 6.87031 1.60535 7.33333 1.03419 7.33333C0.463022 7.33333 0 6.87031 0 6.29915V5.54701Z" fill="#7241FF"/>
<path fill-rule="evenodd" clip-rule="evenodd" d="M9.87111 8.1797V11.9404H12.1275V8.1797H9.87111ZM9.30701 6.11133C8.47622 6.11133 7.80273 6.78481 7.80273 7.6156V12.5045C7.80273 13.3353 8.47622 14.0088 9.30701 14.0088H12.6916C13.5224 14.0088 14.1959 13.3353 14.1959 12.5045V7.6156C14.1959 6.78481 13.5224 6.11133 12.6916 6.11133H9.30701Z" fill="#7241FF"/>
<path fill-rule="evenodd" clip-rule="evenodd" d="M8.36823 8.55566H1.599C0.768213 8.55566 0.0947266 9.22915 0.0947266 10.0599V17.5813C0.0947266 19.2429 1.4417 20.5899 3.10327 20.5899H18.8981C20.5597 20.5899 21.9067 19.2429 21.9067 17.5813V10.0599C21.9067 9.22915 21.2332 8.55566 20.4024 8.55566H13.6332V10.624H19.8383V17.5813C19.8383 18.1005 19.4174 18.5215 18.8981 18.5215H3.10327C2.58403 18.5215 2.1631 18.1005 2.1631 17.5813V10.624H8.36823V8.55566Z" fill="#7241FF"/>
</svg>
