<svg width="144" height="144" viewBox="0 0 144 144" fill="none" xmlns="http://www.w3.org/2000/svg">
<rect width="144" height="144" rx="16" fill="#A98BFF"/>
<path d="M27.6406 19.2188V24.5312H29.7344V26.2031H27.6406V33.4375H25.6406V19.2188H27.6406ZM18.8594 20.3438V23.8125H21.8125V20.3438H23.7969V30.1406H16.875V20.3438H18.8594ZM18.8594 28.5312H21.8125V25.3594H18.8594V28.5312ZM42.9456 30.2188V31.8594H29.93V30.2188H35.4144V28.0781H31.43V23.2969H39.4769V21.7344H31.4144V20.1406H41.4456V24.8594H33.43V26.4531H41.7738V28.0781H37.3988V30.2188H42.9456ZM58.1806 19.2188V22.5781H59.9931V24.2344H58.1806V27.5938H56.1806V19.2188H58.1806ZM58.1806 28.0938V31.2812H50.5556V32.0156H58.6494V33.3438H48.5556V30.0781H56.1806V29.4219H48.54V28.0938H58.1806ZM46.6494 26.0625C47.6884 26.0703 48.8681 26.0703 50.1025 26.0312V25.4062C48.5478 25.2266 47.5869 24.5781 47.6025 23.5625C47.5869 22.4062 48.9619 21.7344 51.0869 21.7344C53.1963 21.7344 54.5556 22.4062 54.5713 23.5625C54.5556 24.5781 53.6181 25.2188 52.0869 25.4062V25.9688C53.2509 25.9141 54.4228 25.8203 55.5244 25.6719L55.665 26.9062C52.6338 27.4219 49.3369 27.4375 46.8525 27.4375L46.6494 26.0625ZM55.165 20.1094V21.4375H47.0244V20.1094H50.1025V19.0938H52.0869V20.1094H55.165ZM51.0869 22.9688C50.0713 22.9688 49.4931 23.1562 49.5088 23.5625C49.4931 23.9844 50.0713 24.2031 51.0869 24.2188C52.0869 24.2031 52.6494 23.9844 52.665 23.5625C52.6494 23.1562 52.0869 22.9688 51.0869 22.9688ZM73.2825 25.9531V27.5469H60.3138V25.9531H63.2356V24.25C62.1966 23.7891 61.6106 23.0859 61.6106 22.1719C61.6106 20.4531 63.6263 19.4219 66.7981 19.4219C69.9388 19.4219 71.9544 20.4531 71.97 22.1719C71.9622 23.0938 71.3528 23.8125 70.2981 24.2656V25.9531H73.2825ZM66.7825 28.2969C69.8606 28.2969 71.72 29.2031 71.7356 30.8438C71.72 32.5156 69.8606 33.4219 66.7825 33.4219C63.6575 33.4219 61.7981 32.5156 61.7981 30.8438C61.7981 29.2031 63.6575 28.2969 66.7825 28.2969ZM66.7825 29.7969C64.8138 29.7969 63.8138 30.1406 63.8294 30.8438C63.8138 31.5781 64.8138 31.9375 66.7825 31.9375C68.7044 31.9375 69.72 31.5781 69.7356 30.8438C69.72 30.1406 68.7044 29.7969 66.7825 29.7969ZM66.7981 20.9531C64.7825 20.9531 63.6731 21.375 63.6888 22.1719C63.6731 22.9531 64.7825 23.3438 66.7981 23.3438C68.7825 23.3438 69.9075 22.9531 69.9075 22.1719C69.9075 21.375 68.7825 20.9531 66.7981 20.9531ZM65.2513 25.9531H68.3138V24.7656C67.845 24.8203 67.3372 24.8438 66.7981 24.8438C66.2434 24.8438 65.7278 24.8203 65.2513 24.75V25.9531ZM88.4081 19.2188V24.6719H90.4238V26.3125H88.4081V33.4062H86.4081V19.2188H88.4081ZM84.6113 20.6719C84.5956 24.9219 82.9394 28.6094 78.1581 30.9531L77.0331 29.4219C80.4003 27.7344 82.205 25.4688 82.58 22.2969H77.8456V20.6719H84.6113ZM102.229 22.7812V24.375H92.3381V19.4375H94.3225V22.7812H102.229ZM103.698 25.5938V27.2188H90.6975V25.5938H103.698ZM97.1663 28.1094C100.244 28.125 102.104 29.0781 102.119 30.75C102.104 32.4375 100.244 33.3906 97.1663 33.3906C94.0569 33.3906 92.1819 32.4375 92.1819 30.75C92.1819 29.0781 94.0569 28.125 97.1663 28.1094ZM97.1663 29.6562C95.1975 29.6719 94.1975 30 94.2131 30.75C94.1975 31.4844 95.1975 31.875 97.1663 31.875C99.0881 31.875 100.104 31.4844 100.119 30.75C100.104 30 99.0881 29.6719 97.1663 29.6562ZM115.487 19.2344V23.5938H117.409V25.2188H115.487V29.8438H113.487V19.2344H115.487ZM112.643 20.7188V22.2969H104.206V20.7188H107.44V19.2031H109.424V20.7188H112.643ZM108.424 22.7969C110.487 22.7969 111.924 23.9062 111.924 25.5469C111.924 27.1875 110.487 28.2656 108.424 28.2656C106.346 28.2656 104.893 27.1875 104.893 25.5469C104.893 23.9062 106.346 22.7969 108.424 22.7969ZM108.424 24.3125C107.471 24.3281 106.831 24.7656 106.846 25.5469C106.831 26.3281 107.471 26.75 108.424 26.75C109.378 26.75 110.034 26.3281 110.034 25.5469C110.034 24.7656 109.378 24.3281 108.424 24.3125ZM116.003 31.5938V33.1875H106.268V29.0312H108.253V31.5938H116.003ZM28.6875 40.2188V54.4375H26.7656V47.3281H25.4375V53.75H23.5625V40.4531H25.4375V45.7188H26.7656V40.2188H28.6875ZM19 41.7969V49.2188C20.1406 49.1953 21.3906 49.0938 22.7656 48.8281L22.9688 50.5469C21.0625 50.875 19.4375 50.9688 17.9688 50.9688H17V41.7969H19ZM45.6256 40.2188V54.4375H43.7194V40.2188H45.6256ZM42.6569 40.4219V53.7812H40.7819V47.0625H39.6413C39.4538 49.8594 38.2663 51.5469 36.5163 51.5469C34.6413 51.5469 33.4225 49.5781 33.4225 46.375C33.4225 43.1875 34.6413 41.2344 36.5163 41.2344C38.2272 41.2344 39.3991 42.8281 39.6256 45.4844H40.7819V40.4219H42.6569ZM36.5163 43.1094C35.7194 43.1094 35.2506 44.2031 35.2663 46.375C35.2506 48.5625 35.7194 49.6406 36.5163 49.625C37.3288 49.6406 37.8131 48.5625 37.8131 46.375C37.8131 44.2031 37.3288 43.1094 36.5163 43.1094ZM58.7588 40.2188V54.4375H56.7431V40.2188H58.7588ZM55.2119 41.5312V43.125H53.9463V49.2969C54.5713 49.2578 55.1884 49.1953 55.79 49.125L55.8838 50.6094C52.8525 51.1094 49.5713 51.1562 46.9619 51.1719L46.7744 49.5469C47.29 49.5469 47.8369 49.5391 48.415 49.5312V43.125H47.165V41.5312H55.2119ZM50.3525 49.4844C50.8994 49.4766 51.4541 49.4531 52.0088 49.4219V43.125H50.3525V49.4844ZM73.3294 51.1406V52.7344H60.3138V51.1406H65.7513V47.9219H67.7356V51.1406H73.3294ZM67.7981 42.0469C67.7981 44.0781 69.6263 46.2188 72.8763 46.7188L72.0325 48.375C69.5325 47.9219 67.6731 46.5859 66.7356 44.8125C65.7981 46.5781 63.9544 47.9297 61.47 48.375L60.6263 46.7188C63.845 46.2188 65.6575 44.0625 65.6731 42.0469V41.0312H67.7981V42.0469ZM85.4156 46.7969V48.3906H75.3531V41.4062H85.3063V43.0156H77.3219V46.7969H85.4156ZM86.8375 51.0625V52.7031H73.8219V51.0625H86.8375ZM100.33 45.7656V47.3281H87.33V45.7656H100.33ZM98.7831 43.4219V44.9844H88.955V40.5H98.6738V42.0938H90.9394V43.4219H98.7831ZM98.7206 48.1719V51.8906H90.7988V52.7656H99.0956V54.3125H88.8456V50.4688H96.7519V49.6719H88.83V48.1719H98.7206Z" fill="white"/>
<circle cx="63.5" cy="90.5" r="11.5" fill="#EEE9FF"/>
<circle cx="71.5" cy="120.5" r="7.5" fill="#FFCAF2"/>
<circle cx="105.5" cy="107.5" r="16.5" fill="#CAE1FF"/>
</svg>
