<svg width="192" height="44" viewBox="0 0 192 44" fill="none" xmlns="http://www.w3.org/2000/svg">
<path d="M186.786 9.13485H191.84V14.1423H186.786V33.3374H180.434V14.1423H176.911V9.13485H180.434V2.04102H186.786V9.13485Z" fill="#7241FF"/>
<path d="M167.705 13.1681L168.632 9.13436H174.103V33.3369H167.659V28.9786C166.546 31.8996 163.718 33.8005 160.055 33.8005C153.517 33.8005 149.669 28.2831 149.669 21.0965C149.669 13.7245 153.703 8.67072 160.426 8.67072C163.393 8.67072 166.175 10.3862 167.705 13.1681ZM161.909 28.0976C165.294 28.0976 167.659 25.3621 167.659 21.2356C167.659 17.1091 165.294 14.3736 161.909 14.3736C158.478 14.3736 156.114 17.0628 156.114 21.2356C156.114 25.4085 158.478 28.0976 161.909 28.0976Z" fill="#7241FF"/>
<path d="M140.954 9.13332L141.881 12.4716C142.994 10.107 144.988 8.53058 148.79 9.08696L148.743 14.7435C144.385 14.2335 142.02 15.7171 142.02 19.38V33.3358H135.715V9.13332H140.954Z" fill="#7241FF"/>
<path d="M125.258 13.1681L126.185 9.13436H131.656V33.3369H125.211V28.9786C124.099 31.8996 121.27 33.8005 117.607 33.8005C111.07 33.8005 107.222 28.2831 107.222 21.0965C107.222 13.7245 111.255 8.67072 117.978 8.67072C120.946 8.67072 123.728 10.3862 125.258 13.1681ZM119.462 28.0976C122.847 28.0976 125.211 25.3621 125.211 21.2356C125.211 17.1091 122.847 14.3736 119.462 14.3736C116.031 14.3736 113.666 17.0628 113.666 21.2356C113.666 25.4085 116.031 28.0976 119.462 28.0976Z" fill="#7241FF"/>
<path d="M96.2374 33.7537C87.5208 33.7537 80.8906 26.6135 80.8906 16.8768C80.8906 7.1402 87.5208 0 96.2374 0C100.596 0 103.378 1.48368 104.49 2.27188V8.48479C103.702 7.65022 101.106 5.84198 97.072 5.84198C91.6009 5.84198 87.3817 10.3394 87.3817 16.8768C87.3817 23.4143 91.6473 27.9117 97.072 27.9117C101.106 27.9117 103.702 26.1035 104.49 25.2689V31.4818C103.378 32.27 100.596 33.7537 96.2374 33.7537Z" fill="#7241FF"/>
<path d="M72.5107 9.13354H79.1873L66.8542 44H60.3631L63.9332 33.6606L54.7529 9.13354H61.6149C65.2778 19.3338 66.6687 24.3412 67.1787 27.4477C67.6424 24.2485 68.8942 19.3338 72.5107 9.13354Z" fill="#7241FF"/>
<path d="M46.0111 13.1681L46.9384 9.13436H52.4094V33.3369H45.9647V28.9786C44.8519 31.8996 42.0237 33.8005 38.3608 33.8005C31.8234 33.8005 27.9751 28.2831 27.9751 21.0965C27.9751 13.7245 32.0088 8.67072 38.7318 8.67072C41.6991 8.67072 44.481 10.3862 46.0111 13.1681ZM40.2154 28.0976C43.6001 28.0976 45.9647 25.3621 45.9647 21.2356C45.9647 17.1091 43.6001 14.3736 40.2154 14.3736C36.7844 14.3736 34.4198 17.0628 34.4198 21.2356C34.4198 25.4085 36.7844 28.0976 40.2154 28.0976Z" fill="#7241FF"/>
<path d="M9.96846 33.3357H0V0.416565H9.96846C19.8906 0.416565 25.6398 7.41767 25.6398 16.8761C25.6398 26.3346 19.8906 33.3357 9.96846 33.3357ZM6.44473 6.30491V27.4473H10.2003C15.4859 27.4473 19.1487 23.8772 19.1487 16.8761C19.1487 9.87501 15.4859 6.30491 10.2003 6.30491H6.44473Z" fill="#7241FF"/>
</svg>
