<svg width="22" height="22" viewBox="0 0 22 22" fill="none" xmlns="http://www.w3.org/2000/svg">
<g id="icon-edit-3">
<g id="Shape">
<path fill-rule="evenodd" clip-rule="evenodd" d="M16.4999 1.72168C15.7411 1.72168 15.0133 2.02313 14.4768 2.55971L3.01842 14.018C2.90094 14.1355 2.8176 14.2827 2.77731 14.4439L1.86064 18.1106C1.78255 18.4229 1.87407 18.7534 2.10176 18.9811C2.32944 19.2088 2.65989 19.3003 2.97226 19.2222L6.63893 18.3055C6.80011 18.2652 6.94731 18.1819 7.06479 18.0644L18.5231 6.60607C18.7888 6.34038 18.9996 6.02497 19.1434 5.67783C19.2871 5.33069 19.3611 4.95863 19.3611 4.58289C19.3611 4.20715 19.2871 3.83509 19.1434 3.48795C18.9996 3.14081 18.7888 2.8254 18.5231 2.55971C18.2574 2.29402 17.942 2.08327 17.5949 1.93948C17.2477 1.79569 16.8757 1.72168 16.4999 1.72168ZM15.7731 3.85607C15.9659 3.66331 16.2273 3.55501 16.4999 3.55501C16.6349 3.55501 16.7686 3.5816 16.8933 3.63326C17.018 3.68491 17.1313 3.76062 17.2268 3.85607C17.3222 3.95152 17.3979 4.06483 17.4496 4.18954C17.5012 4.31425 17.5278 4.44791 17.5278 4.58289C17.5278 4.71787 17.5012 4.85153 17.4496 4.97624C17.3979 5.10095 17.3222 5.21426 17.2268 5.30971L5.94796 16.5885L4.00978 17.0731L4.49432 15.1349L15.7731 3.85607Z" fill="#F5F1FF"/>
<path d="M10.9999 17.4162C10.4937 17.4162 10.0833 17.8266 10.0833 18.3329C10.0833 18.8392 10.4937 19.2496 10.9999 19.2496H19.2499C19.7562 19.2496 20.1666 18.8392 20.1666 18.3329C20.1666 17.8266 19.7562 17.4162 19.2499 17.4162H10.9999Z" fill="#F5F1FF"/>
</g>
</g>
</svg>
