<svg width="144" height="144" viewBox="0 0 144 144" fill="none" xmlns="http://www.w3.org/2000/svg">
<rect width="144" height="144" rx="16" fill="#A98BFF"/>
<path d="M23.0938 23.9219C23 23.0234 22.2891 22.5 21.1406 22.5C19.9531 22.5 19.2891 23.0469 19.2812 23.7969C19.2734 24.6172 20.1172 24.9844 21.0938 25.2031L22.1094 25.4531C24.0469 25.8984 25.4922 26.8828 25.5 28.7656C25.4922 30.8359 23.8828 32.1641 21.125 32.1562C18.3906 32.1641 16.6484 30.8984 16.5781 28.4688H18.8594C18.9375 29.6094 19.8438 30.1875 21.0938 30.1875C22.3281 30.1875 23.125 29.6094 23.125 28.7656C23.125 27.9922 22.4219 27.6328 21.1875 27.3281L19.9531 27.0312C18.0469 26.5625 16.875 25.6094 16.875 23.9531C16.8672 21.8984 18.6797 20.5312 21.1562 20.5312C23.6641 20.5312 25.3125 21.9219 25.3438 23.9219H23.0938ZM37.0706 26.3438C37.0706 30.0391 34.7816 32.1562 31.7894 32.1562C28.7738 32.1562 26.4925 30.0234 26.4925 26.3438C26.4925 22.6484 28.7738 20.5312 31.7894 20.5312C34.7816 20.5312 37.0706 22.6484 37.0706 26.3438ZM28.8831 26.3438C28.8831 28.7578 30.0316 30.0703 31.7894 30.0781C33.5316 30.0703 34.6878 28.7578 34.68 26.3438C34.6878 23.9219 33.5316 22.6172 31.7894 22.6094C30.0316 22.6172 28.8831 23.9219 28.8831 26.3438ZM39.6881 32H37.1569L41.0788 20.6875H44.0944L48.0006 32H45.485L44.6334 29.3906H40.5397L39.6881 32ZM41.1334 27.5625H44.0397L42.6256 23.2344H42.5475L41.1334 27.5625ZM48.9619 32V20.6875H53.3994C55.9697 20.6875 57.4463 22.1328 57.4463 24.375C57.4463 25.9219 56.7353 27.0469 55.4463 27.6016L57.8525 32H55.2588L53.0947 27.9844H51.3056V32H48.9619ZM51.3056 26.0781H52.9619C54.3525 26.0781 55.0322 25.5078 55.0244 24.375C55.0322 23.2344 54.3525 22.6172 52.9619 22.6094H51.3056V26.0781ZM60.6419 32H58.1106L62.0325 20.6875H65.0481L68.9544 32H66.4388L65.5872 29.3906H61.4934L60.6419 32ZM62.0872 27.5625H64.9934L63.5794 23.2344H63.5013L62.0872 27.5625ZM82.4 30.2188V31.8594H69.3844V30.2188H74.8688V28.0781H70.8844V23.2969H78.9313V21.7344H70.8688V20.1406H80.9V24.8594H72.8844V26.4531H81.2281V28.0781H76.8531V30.2188H82.4ZM97.4788 19.2188V24.7812H99.5725V26.4219H97.4788V33.4375H95.51V19.2188H97.4788ZM86.1819 22.9375V21.3438H89.4006V19.4375H91.4006V21.3438H94.5413V22.9375H86.1819ZM86.76 27.125C86.7522 25.1406 88.2991 23.7266 90.4006 23.7344C92.4709 23.7266 94.0256 25.1406 94.0256 27.125C94.0256 29.1094 92.4709 30.5078 90.4006 30.5156C88.2991 30.5078 86.7522 29.1094 86.76 27.125ZM88.6663 27.125C88.6663 28.2266 89.3928 28.8828 90.4006 28.875C91.3928 28.8828 92.1194 28.2266 92.1194 27.125C92.1194 26.0312 91.3928 25.3594 90.4006 25.3438C89.3928 25.3594 88.6663 26.0312 88.6663 27.125ZM111.315 23.0938V24.6562H101.378V19.7188H103.362V23.0938H111.315ZM99.7525 27.75V26.1875H112.768V27.75H99.7525ZM101.253 33.125V28.9062H103.253V31.5312H111.409V33.125H101.253ZM20.8594 44.5469C20.8594 46.7031 21.6328 48.8672 23.6562 49.9531L22.5625 51.4062C21.2812 50.75 20.4297 49.6016 19.9297 48.2188C19.4375 49.7266 18.5859 51 17.2969 51.75L16.1562 50.25C18.2109 49.0625 18.9688 46.7422 18.9844 44.5469V44.2188H16.6875V42.625H18.9844V40.7031H20.8438V42.625H23.0938V44.2188H20.8594V44.5469ZM22.2656 47.2344V45.6094H23.9375V40.4531H25.8125V53.7812H23.9375V47.2344H22.2656ZM26.8281 54.4375V40.2188H28.7188V54.4375H26.8281ZM42.2581 40.2188V54.4375H40.3831V40.2188H42.2581ZM29.7113 50.0781C32.5941 48.375 33.8597 46.3047 34.1331 43.5156H30.5394V41.9062H36.1175C36.1175 42.6172 36.0706 43.3047 35.9847 43.9688H37.3988V40.5312H39.2894V53.8125H37.3988V49.125H35.3831V47.5156H37.3988V45.5781H35.6566C34.9925 47.9297 33.5394 49.9062 30.8831 51.4844L29.7113 50.0781ZM51.6413 41.0156V42.5938H48.8131C48.8209 44.2656 49.8366 45.9922 52.0788 46.7344L51.0944 48.2656C49.5241 47.7734 48.4381 46.7422 47.8209 45.4688C47.1881 46.8828 46.0553 48.0234 44.3756 48.5625L43.36 46.9844C45.7038 46.2422 46.7663 44.3594 46.7819 42.5938H43.9225V41.0156H51.6413ZM45.6569 50.9062V49.3125H55.4225V54.4375H53.4381V50.9062H45.6569ZM51.235 45.2656V43.6406H53.4381V40.2188H55.4225V48.6875H53.4381V45.2656H51.235ZM72.2981 40.2188V48.6562H70.3138V45.2969H68.095V43.6875H70.3138V40.2188H72.2981ZM60.22 47.0938C62.5481 46.3125 63.6106 44.4531 63.6575 42.6719H60.7981V41.0781H68.5169V42.6719H65.6888C65.7278 44.3281 66.7434 46 68.9544 46.7344L67.97 48.2969C66.4075 47.7891 65.3216 46.7578 64.7044 45.4844C64.0794 46.9297 62.9388 48.0938 61.2513 48.6719L60.22 47.0938ZM62.5481 51.7188C62.5481 49.9922 64.4075 48.9766 67.4388 48.9688C70.4778 48.9766 72.3372 49.9922 72.345 51.7188C72.3372 53.4453 70.4778 54.4531 67.4388 54.4531C64.4075 54.4531 62.5481 53.4453 62.5481 51.7188ZM64.5325 51.7188C64.5325 52.5312 65.5559 52.9375 67.4388 52.9375C69.3294 52.9375 70.3528 52.5312 70.3606 51.7188C70.3528 50.8984 69.3294 50.4922 67.4388 50.5C65.5559 50.4922 64.5325 50.8984 64.5325 51.7188ZM85.7438 40.2188V54.4688H83.7594V40.2188H85.7438ZM74.5719 43.0156V41.4062H81.3375V46.8906H76.65V49.5C78.8219 49.4844 80.6578 49.375 82.7438 49.0312L82.9156 50.6406C80.5797 51.0547 78.4625 51.1406 75.8688 51.1406H74.5875V45.3125H79.3063V43.0156H74.5719Z" fill="white"/>
<circle cx="63.5" cy="90.5" r="11.5" fill="#EAE3FF"/>
<circle cx="71.5" cy="120.5" r="7.5" fill="#FFCAF2"/>
<circle cx="105.5" cy="107.5" r="16.5" fill="#CAE1FF"/>
</svg>
