<svg width="129" height="123" viewBox="0 0 129 123" fill="none" xmlns="http://www.w3.org/2000/svg">
<rect width="129" height="123" rx="8" fill="#FFEBED"/>
<path d="M91.9995 37.346V85.9991C91.9995 86.3568 91.9294 86.7145 91.7893 87.0333L82.2728 79.8407L82.0625 79.7551C82.2027 79.4286 82.2728 79.0787 82.2728 78.7287V44.733C82.2728 44.3987 82.2105 44.0721 82.0859 43.7688L82.2728 43.6988L91.8126 36.3818C91.9372 36.6851 91.9995 37.0117 91.9995 37.346Z" fill="url(#paint0_linear_2253_4339)"/>
<path d="M74.5787 87.3739L79.8899 97.6534C79.594 97.7623 79.2825 97.8167 78.9709 97.8167H49.7751C49.4246 97.8167 49.0742 97.7467 48.7627 97.6146L54.5411 87.3739L54.6502 87.1328C54.9928 87.2883 55.3744 87.3739 55.756 87.3739H74.5787Z" fill="url(#paint1_linear_2253_4339)"/>
<path d="M47.7345 43.6988L47.9215 43.7688C47.7968 44.0799 47.7345 44.4142 47.7345 44.7486V78.5655C47.7345 78.892 47.7891 79.2031 47.9059 79.4986L47.7345 79.5608L38.1791 86.6678C38.0623 86.3723 38 86.0535 38 85.7269V37.3616C38 37.0194 38.0623 36.6929 38.1869 36.3818L47.7345 43.6988Z" fill="url(#paint2_linear_2253_4339)"/>
<path d="M81.4474 26.1866L75.5911 36.4429L74.7188 36.4584H74.6955C74.6098 36.4584 74.5164 36.4429 74.4229 36.4429H55.6936C55.3276 36.4429 54.9694 36.5206 54.6345 36.6606L54.5411 36.4429L48.7471 26.1866C49.0508 26.0622 49.3857 26 49.7205 26H80.4661C80.8088 26 81.1359 26.0622 81.4474 26.1866Z" fill="url(#paint3_linear_2253_4339)"/>
<path d="M91.8126 36.3806L82.2728 43.6976L82.0859 43.7676C81.969 43.4643 81.7899 43.1844 81.5641 42.9356L76.3775 37.2981C75.9492 36.8238 75.3495 36.5283 74.7188 36.4583L75.591 36.4428L81.4473 26.1865C81.7744 26.3109 82.0781 26.5053 82.3351 26.7619L91.1974 35.4475C91.47 35.7196 91.6802 36.0384 91.8126 36.3806Z" fill="url(#paint4_linear_2253_4339)"/>
<path d="M54.5415 36.4428L54.635 36.6605C54.3001 36.8082 54.0042 37.0104 53.7472 37.2826L48.4516 42.9278C48.2258 43.1766 48.0389 43.4643 47.922 43.7676L47.7351 43.6976L38.1875 36.3806C38.3277 36.0307 38.5379 35.7119 38.8183 35.4475L47.8753 26.7464C48.1245 26.4976 48.4205 26.3109 48.7475 26.1865L54.5415 36.4428Z" fill="url(#paint5_linear_2253_4339)"/>
<path d="M54.6496 87.1339L54.5405 87.3749L48.7621 97.6156C48.4272 97.4757 48.1157 97.2735 47.8587 97.0091L38.7472 87.5771C38.498 87.3127 38.3033 87.0017 38.1787 86.6673L47.7341 79.5602L47.9055 79.498C48.0145 79.7935 48.178 80.0735 48.3883 80.3145L53.7462 86.4651C54.0032 86.7529 54.3069 86.9783 54.6496 87.1339Z" fill="url(#paint6_linear_2253_4339)"/>
<path d="M82.2738 79.8394L91.7903 87.032C91.6346 87.3975 91.4009 87.7241 91.105 87.9885L80.7396 97.1483C80.4904 97.3738 80.2023 97.5449 79.8908 97.6538L74.5796 87.3742H73.5205C74.2136 87.3664 74.8678 87.0942 75.3584 86.6121L81.4717 80.6248C81.7287 80.3682 81.9312 80.0727 82.0635 79.7539L82.2738 79.8394Z" fill="url(#paint7_linear_2253_4339)"/>
<path d="M82.2726 44.7323V78.7281C82.2726 79.078 82.2025 79.4279 82.0623 79.7545C81.9299 80.0733 81.7274 80.3688 81.4704 80.6254L75.3571 86.6127C74.8665 87.0948 74.2123 87.367 73.5192 87.3747H55.7556C55.374 87.3747 54.9925 87.2892 54.6498 87.1337C54.3071 86.9782 54.0034 86.7527 53.7464 86.465L48.3885 80.3143C48.1783 80.0733 48.0147 79.7933 47.9057 79.4979C47.7889 79.2024 47.7344 78.8913 47.7344 78.5648V44.7479C47.7344 44.4135 47.7967 44.0792 47.9213 43.7681C48.0381 43.4649 48.225 43.1772 48.4508 42.9284L53.7464 37.2831C54.0034 37.011 54.2994 36.8088 54.6342 36.6611C54.9691 36.5211 55.3273 36.4434 55.6933 36.4434H74.4226C74.5161 36.4434 74.6095 36.4511 74.6952 36.4589H74.7185C75.3493 36.5289 75.949 36.8244 76.3773 37.2987L81.5639 42.9361C81.7897 43.185 81.9688 43.4649 82.0857 43.7681C82.2103 44.0714 82.2726 44.398 82.2726 44.7323Z" fill="url(#paint8_linear_2253_4339)"/>
<defs>
<linearGradient id="paint0_linear_2253_4339" x1="82.0693" y1="54.9721" x2="113.081" y2="70.8861" gradientUnits="userSpaceOnUse">
<stop stop-color="#FF3542"/>
<stop offset="1" stop-color="white"/>
</linearGradient>
<linearGradient id="paint1_linear_2253_4339" x1="60.0351" y1="87.2077" x2="66.1559" y2="115.363" gradientUnits="userSpaceOnUse">
<stop stop-color="#FF3542"/>
<stop offset="1" stop-color="white"/>
</linearGradient>
<linearGradient id="paint2_linear_2253_4339" x1="50.2415" y1="52.9318" x2="33.5114" y2="97.4094" gradientUnits="userSpaceOnUse">
<stop stop-color="#FF3542"/>
<stop offset="1" stop-color="white"/>
</linearGradient>
<linearGradient id="paint3_linear_2253_4339" x1="69.4202" y1="24.7758" x2="61.2592" y2="47.2187" gradientUnits="userSpaceOnUse">
<stop stop-color="#FF3542"/>
<stop offset="1" stop-color="white"/>
</linearGradient>
<linearGradient id="paint4_linear_2253_4339" x1="77.9891" y1="37.0174" x2="99.2078" y2="26" gradientUnits="userSpaceOnUse">
<stop stop-color="#FF7380"/>
<stop offset="1" stop-color="white"/>
</linearGradient>
<linearGradient id="paint5_linear_2253_4339" x1="51.8743" y1="34.9772" x2="41.265" y2="48.8509" gradientUnits="userSpaceOnUse">
<stop stop-color="#FF7380"/>
<stop offset="1" stop-color="white"/>
</linearGradient>
<linearGradient id="paint6_linear_2253_4339" x1="43.7125" y1="85.1677" x2="50.2413" y2="105.57" gradientUnits="userSpaceOnUse">
<stop stop-color="#FF7380"/>
<stop offset="1" stop-color="white"/>
</linearGradient>
<linearGradient id="paint7_linear_2253_4339" x1="76.7658" y1="86.3911" x2="87.7832" y2="105.57" gradientUnits="userSpaceOnUse">
<stop stop-color="#FF7380"/>
<stop offset="1" stop-color="white"/>
</linearGradient>
<linearGradient id="paint8_linear_2253_4339" x1="96.351" y1="105.57" x2="37.9997" y2="20.2871" gradientUnits="userSpaceOnUse">
<stop stop-color="#FB5E6C"/>
<stop offset="1" stop-color="white"/>
</linearGradient>
</defs>
</svg>
