<svg width="24" height="24" viewBox="0 0 24 24" fill="none" xmlns="http://www.w3.org/2000/svg">
<path fill-rule="evenodd" clip-rule="evenodd" d="M4 11C4 7.13401 7.13401 4 11 4C14.866 4 18 7.13401 18 11C18 12.8858 17.2543 14.5974 16.0417 15.8561C16.0073 15.8825 15.9743 15.9114 15.9428 15.9429C15.9113 15.9744 15.8824 16.0074 15.856 16.0418C14.5973 17.2543 12.8857 18 11 18C7.13401 18 4 14.866 4 11ZM16.6176 18.0319C15.078 19.2635 13.125 20 11 20C6.02944 20 2 15.9706 2 11C2 6.02944 6.02944 2 11 2C15.9706 2 20 6.02944 20 11C20 13.125 19.2635 15.0781 18.0319 16.6177L21.707 20.2929C22.0975 20.6834 22.0975 21.3166 21.707 21.7071C21.3165 22.0976 20.6833 22.0976 20.2928 21.7071L16.6176 18.0319Z" fill="#2D3648"/>
</svg>
