<svg width="24" height="17" viewBox="0 0 24 17" fill="none" xmlns="http://www.w3.org/2000/svg">
<path fill-rule="evenodd" clip-rule="evenodd" d="M5.72458 0.389052C5.9901 0.139151 6.34098 0 6.70561 0H17.9207C18.3163 0 18.6943 0.163763 18.9649 0.452404L23.6129 5.41017C24.1676 6.00188 24.1203 6.93584 23.5087 7.46854L13.4242 16.2518C12.9038 16.705 12.1343 16.7225 11.5939 16.2934L0.541245 7.51628C-0.142099 6.97363 -0.185049 5.95106 0.450378 5.35301L5.72458 0.389052ZM17.9207 1.43139H6.70561L1.4314 6.39535L12.4841 15.1725L22.5686 6.38915L17.9207 1.43139Z" fill="white"/>
<path fill-rule="evenodd" clip-rule="evenodd" d="M23.2406 7.15795H0.338379V5.72656H23.2406V7.15795Z" fill="white"/>
<path fill-rule="evenodd" clip-rule="evenodd" d="M6.36205 5.72362L9.37614 0.365234L10.6237 1.06699L7.60961 6.42537L13.1144 15.3706L11.8953 16.1208L6.39056 7.17556C6.11802 6.73269 6.10711 6.17685 6.36205 5.72362Z" fill="white"/>
<path fill-rule="evenodd" clip-rule="evenodd" d="M17.9319 5.72362L14.9178 0.365234L13.6702 1.06699L16.6843 6.42537L11.1796 15.3706L12.3986 16.1208L17.9034 7.17556C18.1759 6.73269 18.1868 6.17685 17.9319 5.72362Z" fill="white"/>
</svg>
