<svg width="56" height="56" viewBox="0 0 56 56" fill="none" xmlns="http://www.w3.org/2000/svg">
<circle cx="28" cy="28" r="28" fill="#7241FF"/>
<path d="M29.958 17.2918C29.958 16.4864 29.3051 15.8335 28.4997 15.8335C27.6943 15.8335 27.0413 16.4864 27.0413 17.2918V26.0418H18.2913C17.4859 26.0418 16.833 26.6947 16.833 27.5002C16.833 28.3056 17.4859 28.9585 18.2913 28.9585H27.0413V37.7085C27.0413 38.5139 27.6943 39.1668 28.4997 39.1668C29.3051 39.1668 29.958 38.5139 29.958 37.7085V28.9585H38.708C39.5134 28.9585 40.1663 28.3056 40.1663 27.5002C40.1663 26.6947 39.5134 26.0418 38.708 26.0418H29.958V17.2918Z" fill="#F9FBFD"/>
</svg>
