<svg width="188" height="74" viewBox="0 0 188 74" fill="none" xmlns="http://www.w3.org/2000/svg">
<path d="M27.8438 48H25.3125L29.2344 36.6875H32.25L36.1562 48H33.6406L32.7891 45.3906H28.6953L27.8438 48ZM29.2891 43.5625H32.1953L30.7812 39.2344H30.7031L29.2891 43.5625ZM39.4613 36.6875V48H37.1175V36.6875H39.4613ZM56.8525 43.7344V45.3594H51.3369V49.4531H49.3681V45.3594H43.8838V43.7344H56.8525ZM44.54 41.4062C47.4931 41.0781 49.0947 39.6875 49.3369 38.4219H45.0556V36.8594H49.3681V35.2344H51.3369V36.8594H55.665V38.4219H51.3994C51.6181 39.6719 53.2197 41.0781 56.165 41.4062L55.4463 42.9688C53.0322 42.6953 51.29 41.7031 50.3681 40.4141C49.4384 41.7188 47.6884 42.6953 45.2588 42.9688L44.54 41.4062ZM62.6262 38.5625C62.6341 40.1641 63.6731 41.7969 65.9856 42.5L65.0325 44.0469C63.4387 43.5859 62.3137 42.6094 61.6731 41.375C61.0403 42.7109 59.9153 43.7656 58.2669 44.2812L57.2981 42.7188C59.6106 42.0234 60.6419 40.2969 60.6419 38.5625V38.4531H57.7825V36.8906H60.6419V35.3125H62.6575V36.8906H65.5012V38.4531H62.6262V38.5625ZM59.9387 49.1875V44.875H61.9387V47.5938H69.72V49.1875H59.9387ZM65.0325 40.9844V39.375H67.3919V35.2344H69.3762V45.7812H67.3919V40.9844H65.0325ZM82.0331 36.5781C82.0175 40.9531 80.8144 44.6797 75.4394 47.3125L74.3925 45.7812C76.7363 44.6172 78.205 43.2891 79.0644 41.6953L74.7519 42.0781L74.5019 40.3906L79.705 40.0781C79.8769 39.4844 79.9784 38.8438 80.0409 38.1719H75.2363V36.5781H82.0331ZM84.205 49.4375V35.2188H86.2206V49.4375H84.205ZM99.9162 35.2344V49.4375H97.885V46.2969H94.9944V44.7969H97.885V35.2344H99.9162ZM87.7131 42.4375C90.3772 42.4375 93.9084 42.4219 96.9787 42.0156L97.0881 43.4688C95.8381 43.6875 94.5569 43.8281 93.2912 43.9141V49.0156H91.2756V44.0156C90.0959 44.0547 88.9709 44.0625 87.9631 44.0625L87.7131 42.4375ZM88.7131 38.7188C88.7053 37.0078 90.2366 35.8047 92.3694 35.7969C94.4709 35.8047 96.0178 37.0078 96.0256 38.7188C96.0178 40.4688 94.4709 41.625 92.3694 41.625C90.2366 41.625 88.7053 40.4688 88.7131 38.7188ZM90.5881 38.7188C90.5803 39.6094 91.3069 40.1094 92.3694 40.1094C93.3928 40.1094 94.1194 39.6094 94.135 38.7188C94.1194 37.8516 93.4006 37.3125 92.3694 37.3125C91.3069 37.3125 90.5803 37.8516 90.5881 38.7188ZM112.878 41.7969V43.3906H102.815V36.4062H112.768V38.0156H104.784V41.7969H112.878ZM101.284 47.7031V46.0625H114.299V47.7031H101.284ZM122.706 37.75C122.706 39.2891 123.503 40.8047 125.394 41.5312L124.331 43.0469C123.113 42.5859 122.277 41.7422 121.769 40.6953C121.253 41.9219 120.363 42.9453 119.034 43.5L117.956 41.9688C119.964 41.0859 120.769 39.3359 120.769 37.75V36.0781H122.706V37.75ZM120.597 46.7812C120.589 45.1172 122.503 44.1172 125.519 44.125C128.519 44.1172 130.441 45.1172 130.456 46.7812C130.441 48.4297 128.519 49.4453 125.519 49.4375C122.503 49.4453 120.589 48.4297 120.597 46.7812ZM122.597 46.7812C122.581 47.5469 123.652 47.9375 125.519 47.9375C127.37 47.9375 128.441 47.5469 128.441 46.7812C128.441 46.0078 127.37 45.6094 125.519 45.6094C123.652 45.6094 122.581 46.0078 122.597 46.7812ZM125.441 43.4844V35.4844H127.3V38.7031H128.488V35.2344H130.378V43.9219H128.488V40.3125H127.3V43.4844H125.441ZM137.043 37.1562C137.035 39.0547 138.011 40.8125 140.293 41.5156L139.246 43.0781C137.714 42.5469 136.675 41.5703 136.074 40.2891C135.449 41.7734 134.3 42.9375 132.589 43.5156L131.543 41.9219C133.972 41.1406 135.019 39.2344 135.027 37.25V35.9531H137.043V37.1562ZM133.902 46.6875C133.902 44.9375 135.761 43.9141 138.793 43.9219C141.832 43.9141 143.691 44.9375 143.699 46.6875C143.691 48.4453 141.832 49.4453 138.793 49.4375C135.761 49.4453 133.902 48.4453 133.902 46.6875ZM135.886 46.6875C135.886 47.4766 136.91 47.8906 138.793 47.8906C140.683 47.8906 141.707 47.4766 141.714 46.6875C141.707 45.875 140.683 45.4688 138.793 45.4688C136.91 45.4688 135.886 45.875 135.886 46.6875ZM138.996 39.4531V37.8281H141.668V35.2188H143.652V43.5469H141.668V39.4531H138.996ZM161.512 41.6719V43.2812H156.012V44.3359C158.481 44.5156 159.949 45.4062 159.965 46.875C159.949 48.5234 158.082 49.4453 155.012 49.4375C151.895 49.4453 150.027 48.5234 150.027 46.875C150.027 45.3984 151.504 44.5078 154.027 44.3281V43.2812H148.543V41.6719H161.512ZM149.121 39.5781C151.754 39.3438 153.207 38.375 153.567 37.3906H149.731V35.8281H160.34V37.3906H156.473C156.817 38.3828 158.262 39.3438 160.965 39.5781L160.262 41.1406C157.574 40.8828 155.77 39.875 155.012 38.4922C154.262 39.8672 152.473 40.8906 149.777 41.1406L149.121 39.5781ZM152.059 46.875C152.051 47.5625 153.043 47.9375 155.012 47.9375C156.942 47.9375 157.957 47.5625 157.965 46.875C157.957 46.1562 156.942 45.8125 155.012 45.7969C153.043 45.8125 152.051 46.1562 152.059 46.875Z" fill="#7241FF"/>
<path d="M43.6623 61.1543C43.6487 62.7676 44.845 64.2168 46.6565 64.8184L46.1096 65.6797C44.7219 65.2012 43.6555 64.21 43.136 62.9727C42.6096 64.3467 41.4953 65.4336 40.053 65.9668L39.4924 65.0918C41.3245 64.4697 42.5754 62.9111 42.5823 61.168V60.6895H39.8205V59.8145H46.3694V60.6895H43.6623V61.1543ZM41.3791 70.9434V66.6777H49.0491V70.9434H41.3791ZM42.4319 70.0684H47.9827V67.5391H42.4319V70.0684ZM47.9827 66.1172V58.9531H49.0491V61.9883H50.8811V62.8906H49.0491V66.1172H47.9827ZM55.687 62.2207C55.6802 64.4424 57.1909 66.6709 58.982 67.4844L58.3257 68.332C56.938 67.6621 55.7417 66.2197 55.1607 64.4902C54.6001 66.3223 53.4038 67.8604 51.982 68.5781L51.2984 67.6758C53.1099 66.8486 54.607 64.5244 54.6206 62.2207V60.0059H55.687V62.2207ZM60.3081 71.1348V58.9531H61.3882V71.1348H60.3081ZM69.325 60.0605V65.6523H63.7059V60.0605H69.325ZM64.7586 64.791H68.2859V60.9355H64.7586V64.791ZM65.0867 70.8477V67.0195H66.1395V69.9453H73.2488V70.8477H65.0867ZM71.6219 67.8672V58.9531H72.6883V62.6582H74.5203V63.5605H72.6883V67.8672H71.6219ZM88.2884 58.9531V71.1074H87.2084V58.9531H88.2884ZM78.39 67.9492C81.6781 66.3906 83.3597 64.0596 83.599 61.1543H78.9505V60.2793H84.6927C84.6791 63.7725 83.0521 66.8691 78.9779 68.8242L78.39 67.9492ZM99.4655 58.9531V63.7656H101.503V64.668H99.4655V71.1348H98.3991V58.9531H99.4655ZM90.5924 68.0859V60.1426H96.2663V61.0312H91.6588V67.1836C93.86 67.1768 95.4118 67.0811 97.2233 66.7461L97.36 67.6758C95.4528 68.0176 93.86 68.0859 91.5495 68.0859H90.5924ZM111.941 58.9531V71.1348H110.875V65.9531H108.346V65.0508H110.875V62.6309H108.441V61.7285H110.875V58.9531H111.941ZM102.303 60.9492V60.0605H107.648V64.3809H103.41V67.375C105.235 67.375 106.746 67.3066 108.592 67.0195L108.687 67.9219C106.746 68.2227 105.187 68.291 103.246 68.291H102.344V63.5059H106.596V60.9492H102.303ZM119.837 60.6758C119.83 62.3027 121.997 63.6836 124.116 63.998L123.72 64.8457C121.826 64.5244 119.974 63.5127 119.236 62.0498C118.497 63.5127 116.645 64.5244 114.779 64.8457L114.355 63.998C116.467 63.6836 118.627 62.3027 118.634 60.6758V60.5938H114.738V59.7188H123.72V60.5938H119.837V60.6758ZM113.698 66.7734V65.8848H124.773V66.7734H119.741V71.1074H118.689V66.7734H113.698ZM129.127 62.4121C129.127 64.3467 130.071 66.4316 131.684 67.3887L131.069 68.2227C129.893 67.5117 129.052 66.2129 128.628 64.7295C128.184 66.3496 127.282 67.7441 126.065 68.4824L125.381 67.6758C127.063 66.6914 128.088 64.5381 128.088 62.4531V60.1016H129.127V62.4121ZM130.344 64.2305V63.3145H132.409V59.2129H133.42V70.4922H132.409V64.2305H130.344ZM134.897 71.1074V58.9531H135.936V71.1074H134.897ZM148.467 68.6465V69.5488H137.338V68.6465H140.099V65.3721C139.06 64.832 138.431 63.957 138.431 62.8496C138.431 60.9697 140.277 59.7324 142.875 59.7188C145.472 59.7324 147.318 60.9697 147.318 62.8496C147.318 63.9365 146.71 64.7979 145.705 65.3379V68.6465H148.467ZM139.47 62.8496C139.464 64.21 140.879 65.1191 142.875 65.1191C144.85 65.1191 146.279 64.21 146.279 62.8496C146.279 61.4893 144.85 60.5938 142.875 60.6074C140.879 60.5938 139.464 61.4893 139.47 62.8496ZM141.152 68.6465H144.625V65.7549C144.098 65.8916 143.511 65.9668 142.875 65.9668C142.253 65.9668 141.672 65.8984 141.152 65.7617V68.6465Z" fill="#5E6369"/>
<path d="M94 6C94 5.44772 93.5523 5 93 5C92.4477 5 92 5.44772 92 6V12C92 12.3788 92.214 12.725 92.5528 12.8944L96.5528 14.8944C97.0468 15.1414 97.6474 14.9412 97.8944 14.4472C98.1414 13.9532 97.9412 13.3526 97.4472 13.1056L94 11.382V6Z" fill="#7241FF"/>
<path fill-rule="evenodd" clip-rule="evenodd" d="M93 1C86.9249 1 82 5.92487 82 12C82 18.0751 86.9249 23 93 23C99.0751 23 104 18.0751 104 12C104 5.92487 99.0751 1 93 1ZM84 12C84 7.02944 88.0294 3 93 3C97.9706 3 102 7.02944 102 12C102 16.9706 97.9706 21 93 21C88.0294 21 84 16.9706 84 12Z" fill="#7241FF"/>
</svg>
