<svg width="168" height="218" viewBox="0 0 168 218" fill="none" xmlns="http://www.w3.org/2000/svg">
<path d="M110.2 151.167L184.296 209.821L109.206 184.257L110.2 151.167Z" fill="#FFB2EB"/>
<path d="M109.205 184.257L184.295 209.82L91.4675 211.748L109.205 184.257Z" fill="#FF85E0"/>
<path d="M65.6968 170.165L110.199 151.167L109.206 184.257L65.6968 170.165Z" fill="#FFE1F7"/>
<path d="M65.6969 170.164L109.206 184.257L91.468 211.748L65.6969 170.164Z" fill="#FFB2EB"/>
<path d="M157.408 82.0263L196.706 217.76L127.474 121.451L157.408 82.0263Z" fill="#FFB2EB"/>
<path d="M127.474 121.45L196.706 217.759L82.0139 139.523L127.474 121.45Z" fill="#FF85E0"/>
<path d="M86.7349 66.5234L157.408 82.0261L127.474 121.451L86.7349 66.5234Z" fill="#FFE1F7"/>
<path d="M86.7349 66.5234L127.474 121.451L82.0135 139.524L86.7349 66.5234Z" fill="#FFB2EB"/>
<path d="M199.553 81.059L194.267 179.217L170.858 100.096L199.553 81.059Z" fill="#FFB2EB"/>
<path d="M170.858 100.096L194.267 179.217L136.858 101.552L170.858 100.096Z" fill="#FF85E0"/>
<path d="M156.684 54.6841L199.553 81.0589L170.858 100.096L156.684 54.6841Z" fill="#FFE1F7"/>
<path d="M156.684 54.6844L170.858 100.096L136.858 101.552L156.684 54.6844Z" fill="#FFB2EB"/>
<path d="M43.4365 92.3178C57.2343 106.006 104.483 94.2534 81.2616 67.3869C54.4955 36.4188 62.2107 102.219 106.638 93.6313" stroke="#8BBBFD" stroke-width="10" stroke-linecap="square"/>
<path d="M4 83.2173C7.72324 84.3881 15.7239 88.9056 17.9407 97.6089" stroke="#FF85E0" stroke-width="10"/>
<path d="M118.631 12.4179C115.395 14.1173 108.015 20.2071 104.379 30.9711" stroke="#7241FF" stroke-width="10" stroke-linecap="square"/>
</svg>
