<svg width="188" height="74" viewBox="0 0 188 74" fill="none" xmlns="http://www.w3.org/2000/svg">
<path d="M101 6C101 5.44772 100.552 5 100 5C99.4477 5 99 5.44772 99 6V12C99 12.3788 99.214 12.725 99.5528 12.8944L103.553 14.8944C104.047 15.1414 104.647 14.9412 104.894 14.4472C105.141 13.9532 104.941 13.3526 104.447 13.1056L101 11.382V6Z" fill="#7241FF"/>
<path fill-rule="evenodd" clip-rule="evenodd" d="M100 1C93.9249 1 89 5.92487 89 12C89 18.0751 93.9249 23 100 23C106.075 23 111 18.0751 111 12C111 5.92487 106.075 1 100 1ZM91 12C91 7.02944 95.0294 3 100 3C104.971 3 109 7.02944 109 12C109 16.9706 104.971 21 100 21C95.0294 21 91 16.9706 91 12Z" fill="#7241FF"/>
<path d="M34.8438 48H32.3125L36.2344 36.6875H39.25L43.1562 48H40.6406L39.7891 45.3906H35.6953L34.8438 48ZM36.2891 43.5625H39.1953L37.7812 39.2344H37.7031L36.2891 43.5625ZM46.4613 36.6875V48H44.1175V36.6875H46.4613ZM63.8525 43.7344V45.3594H58.3369V49.4531H56.3681V45.3594H50.8838V43.7344H63.8525ZM51.54 41.4062C54.4931 41.0781 56.0947 39.6875 56.3369 38.4219H52.0556V36.8594H56.3681V35.2344H58.3369V36.8594H62.665V38.4219H58.3994C58.6181 39.6719 60.2197 41.0781 63.165 41.4062L62.4463 42.9688C60.0322 42.6953 58.29 41.7031 57.3681 40.4141C56.4384 41.7188 54.6884 42.6953 52.2588 42.9688L51.54 41.4062ZM69.6262 38.5625C69.6341 40.1641 70.6731 41.7969 72.9856 42.5L72.0325 44.0469C70.4387 43.5859 69.3137 42.6094 68.6731 41.375C68.0403 42.7109 66.9153 43.7656 65.2669 44.2812L64.2981 42.7188C66.6106 42.0234 67.6419 40.2969 67.6419 38.5625V38.4531H64.7825V36.8906H67.6419V35.3125H69.6575V36.8906H72.5012V38.4531H69.6262V38.5625ZM66.9387 49.1875V44.875H68.9387V47.5938H76.72V49.1875H66.9387ZM72.0325 40.9844V39.375H74.3919V35.2344H76.3762V45.7812H74.3919V40.9844H72.0325ZM94.2675 42.25V43.8281H88.9081V46.2812H86.9394V43.8281H81.2519V42.25H94.2675ZM82.7831 49.1875V45.0469H84.7675V47.5938H92.83V49.1875H82.7831ZM82.8769 41.0781V35.8438H92.5956V41.0781H82.8769ZM84.83 39.5312H90.6425V37.3906H84.83V39.5312ZM102.854 36.1719V37.7656H100.026C100.033 39.4219 101.041 41.0234 103.307 41.6875L102.354 43.25C100.783 42.7734 99.6897 41.8125 99.0647 40.6016C98.4319 42.0312 97.2756 43.1719 95.5725 43.7344L94.5569 42.1562C96.9162 41.4141 97.9866 39.5703 98.01 37.7656H95.1037V36.1719H102.854ZM96.5256 46.6719C96.5178 44.9375 98.3928 43.9297 101.401 43.9375C104.362 43.9297 106.19 44.9375 106.197 46.6719C106.19 48.4141 104.362 49.4453 101.401 49.4375C98.3928 49.4453 96.5178 48.4141 96.5256 46.6719ZM98.5256 46.6719C98.51 47.4844 99.5334 47.8906 101.401 47.8906C103.244 47.8906 104.229 47.4844 104.229 46.6719C104.229 45.875 103.244 45.4766 101.401 45.4844C99.5334 45.4766 98.51 45.875 98.5256 46.6719ZM104.057 43.6562V35.2188H106.057V38.5156H107.979V40.1406H106.057V43.6562H104.057ZM116.198 37.75C116.198 39.2891 116.995 40.8047 118.886 41.5312L117.823 43.0469C116.604 42.5859 115.768 41.7422 115.261 40.6953C114.745 41.9219 113.854 42.9453 112.526 43.5L111.448 41.9688C113.456 41.0859 114.261 39.3359 114.261 37.75V36.0781H116.198V37.75ZM114.089 46.7812C114.081 45.1172 115.995 44.1172 119.011 44.125C122.011 44.1172 123.933 45.1172 123.948 46.7812C123.933 48.4297 122.011 49.4453 119.011 49.4375C115.995 49.4453 114.081 48.4297 114.089 46.7812ZM116.089 46.7812C116.073 47.5469 117.143 47.9375 119.011 47.9375C120.862 47.9375 121.933 47.5469 121.933 46.7812C121.933 46.0078 120.862 45.6094 119.011 45.6094C117.143 45.6094 116.073 46.0078 116.089 46.7812ZM118.933 43.4844V35.4844H120.792V38.7031H121.979V35.2344H123.87V43.9219H121.979V40.3125H120.792V43.4844H118.933ZM130.534 37.1562C130.527 39.0547 131.503 40.8125 133.784 41.5156L132.738 43.0781C131.206 42.5469 130.167 41.5703 129.566 40.2891C128.941 41.7734 127.792 42.9375 126.081 43.5156L125.034 41.9219C127.464 41.1406 128.511 39.2344 128.519 37.25V35.9531H130.534V37.1562ZM127.394 46.6875C127.394 44.9375 129.253 43.9141 132.284 43.9219C135.323 43.9141 137.183 44.9375 137.191 46.6875C137.183 48.4453 135.323 49.4453 132.284 49.4375C129.253 49.4453 127.394 48.4453 127.394 46.6875ZM129.378 46.6875C129.378 47.4766 130.402 47.8906 132.284 47.8906C134.175 47.8906 135.198 47.4766 135.206 46.6875C135.198 45.875 134.175 45.4688 132.284 45.4688C130.402 45.4688 129.378 45.875 129.378 46.6875ZM132.488 39.4531V37.8281H135.159V35.2188H137.144V43.5469H135.159V39.4531H132.488ZM155.004 41.6719V43.2812H149.504V44.3359C151.973 44.5156 153.441 45.4062 153.457 46.875C153.441 48.5234 151.574 49.4453 148.504 49.4375C145.387 49.4453 143.519 48.5234 143.519 46.875C143.519 45.3984 144.996 44.5078 147.519 44.3281V43.2812H142.035V41.6719H155.004ZM142.613 39.5781C145.246 39.3438 146.699 38.375 147.058 37.3906H143.223V35.8281H153.832V37.3906H149.965C150.308 38.3828 151.754 39.3438 154.457 39.5781L153.754 41.1406C151.066 40.8828 149.262 39.875 148.504 38.4922C147.754 39.8672 145.965 40.8906 143.269 41.1406L142.613 39.5781ZM145.551 46.875C145.543 47.5625 146.535 47.9375 148.504 47.9375C150.433 47.9375 151.449 47.5625 151.457 46.875C151.449 46.1562 150.433 45.8125 148.504 45.7969C146.535 45.8125 145.543 46.1562 145.551 46.875Z" fill="#7241FF"/>
<path d="M43.6623 61.1543C43.6487 62.7676 44.845 64.2168 46.6565 64.8184L46.1096 65.6797C44.7219 65.2012 43.6555 64.21 43.136 62.9727C42.6096 64.3467 41.4953 65.4336 40.053 65.9668L39.4924 65.0918C41.3245 64.4697 42.5754 62.9111 42.5823 61.168V60.6895H39.8205V59.8145H46.3694V60.6895H43.6623V61.1543ZM41.3791 70.9434V66.6777H49.0491V70.9434H41.3791ZM42.4319 70.0684H47.9827V67.5391H42.4319V70.0684ZM47.9827 66.1172V58.9531H49.0491V61.9883H50.8811V62.8906H49.0491V66.1172H47.9827ZM55.687 62.2207C55.6802 64.4424 57.1909 66.6709 58.982 67.4844L58.3257 68.332C56.938 67.6621 55.7417 66.2197 55.1607 64.4902C54.6001 66.3223 53.4038 67.8604 51.982 68.5781L51.2984 67.6758C53.1099 66.8486 54.607 64.5244 54.6206 62.2207V60.0059H55.687V62.2207ZM60.3081 71.1348V58.9531H61.3882V71.1348H60.3081ZM69.325 60.0605V65.6523H63.7059V60.0605H69.325ZM64.7586 64.791H68.2859V60.9355H64.7586V64.791ZM65.0867 70.8477V67.0195H66.1395V69.9453H73.2488V70.8477H65.0867ZM71.6219 67.8672V58.9531H72.6883V62.6582H74.5203V63.5605H72.6883V67.8672H71.6219ZM88.2884 58.9531V71.1074H87.2084V58.9531H88.2884ZM78.39 67.9492C81.6781 66.3906 83.3597 64.0596 83.599 61.1543H78.9505V60.2793H84.6927C84.6791 63.7725 83.0521 66.8691 78.9779 68.8242L78.39 67.9492ZM99.4655 58.9531V63.7656H101.503V64.668H99.4655V71.1348H98.3991V58.9531H99.4655ZM90.5924 68.0859V60.1426H96.2663V61.0312H91.6588V67.1836C93.86 67.1768 95.4118 67.0811 97.2233 66.7461L97.36 67.6758C95.4528 68.0176 93.86 68.0859 91.5495 68.0859H90.5924ZM111.941 58.9531V71.1348H110.875V65.9531H108.346V65.0508H110.875V62.6309H108.441V61.7285H110.875V58.9531H111.941ZM102.303 60.9492V60.0605H107.648V64.3809H103.41V67.375C105.235 67.375 106.746 67.3066 108.592 67.0195L108.687 67.9219C106.746 68.2227 105.187 68.291 103.246 68.291H102.344V63.5059H106.596V60.9492H102.303ZM119.837 60.6758C119.83 62.3027 121.997 63.6836 124.116 63.998L123.72 64.8457C121.826 64.5244 119.974 63.5127 119.236 62.0498C118.497 63.5127 116.645 64.5244 114.779 64.8457L114.355 63.998C116.467 63.6836 118.627 62.3027 118.634 60.6758V60.5938H114.738V59.7188H123.72V60.5938H119.837V60.6758ZM113.698 66.7734V65.8848H124.773V66.7734H119.741V71.1074H118.689V66.7734H113.698ZM129.127 62.4121C129.127 64.3467 130.071 66.4316 131.684 67.3887L131.069 68.2227C129.893 67.5117 129.052 66.2129 128.628 64.7295C128.184 66.3496 127.282 67.7441 126.065 68.4824L125.381 67.6758C127.063 66.6914 128.088 64.5381 128.088 62.4531V60.1016H129.127V62.4121ZM130.344 64.2305V63.3145H132.409V59.2129H133.42V70.4922H132.409V64.2305H130.344ZM134.897 71.1074V58.9531H135.936V71.1074H134.897ZM148.467 68.6465V69.5488H137.338V68.6465H140.099V65.3721C139.06 64.832 138.431 63.957 138.431 62.8496C138.431 60.9697 140.277 59.7324 142.875 59.7188C145.472 59.7324 147.318 60.9697 147.318 62.8496C147.318 63.9365 146.71 64.7979 145.705 65.3379V68.6465H148.467ZM139.47 62.8496C139.464 64.21 140.879 65.1191 142.875 65.1191C144.85 65.1191 146.279 64.21 146.279 62.8496C146.279 61.4893 144.85 60.5938 142.875 60.6074C140.879 60.5938 139.464 61.4893 139.47 62.8496ZM141.152 68.6465H144.625V65.7549C144.098 65.8916 143.511 65.9668 142.875 65.9668C142.253 65.9668 141.672 65.8984 141.152 65.7617V68.6465Z" fill="#5E6369"/>
</svg>
