<svg width="393" height="96" viewBox="0 0 393 96" fill="none" xmlns="http://www.w3.org/2000/svg">
<rect width="393" height="96" fill="url(#paint0_linear_499_1454)"/>
<path d="M42.9375 26.0234V43.7969H40.5352V26.0234H42.9375ZM28.0742 39.832V28.0352H34.8711V30.0273H30.5156V37.7715C32.4102 37.752 33.8555 37.6445 35.5156 37.3125L35.7109 39.3438C33.6992 39.7441 31.9121 39.832 29.3047 39.832H28.0742ZM33.6602 34.5391V32.5078H36.8438V26.3359H39.168V42.9961H36.8438V34.5391H33.6602ZM59.2953 26.0234V43.8359H56.7758V26.0234H59.2953ZM44.9398 33.6016C44.9301 29.7246 46.9125 27.2734 49.6469 27.2734C52.3227 27.2734 54.3148 29.7246 54.3148 33.6016C54.3148 37.5078 52.3227 39.9492 49.6469 39.9492C46.9125 39.9492 44.9301 37.5078 44.9398 33.6016ZM47.3422 33.6016C47.3324 36.248 48.2602 37.6934 49.6469 37.6836C50.9945 37.6934 51.9027 36.248 51.9125 33.6016C51.9027 30.9648 50.9945 29.5195 49.6469 29.5195C48.2602 29.5195 47.3324 30.9648 47.3422 33.6016ZM76.7078 26.0234V43.7969H74.3055V34.832H72.6844V43.0156H70.3602V26.4141H72.6844V32.8203H74.3055V26.0234H76.7078ZM61.2391 38.6016C63.5633 37.2734 64.9988 35.7891 65.8484 34.0508L61.6883 34.5L61.3953 32.3906L66.532 32.1172C66.6883 31.4727 66.7957 30.7988 66.8445 30.0859H62.3133V28.0938H69.2664C69.2566 33.1523 68.0164 37.3125 62.6844 40.3594L61.2391 38.6016ZM93.1633 26.043V38.1523H90.6828V31.9414H87.8117V29.9492H90.6828V26.043H93.1633ZM78.8469 28.9922V26.9805H86.9133V32.5664H81.3469V34.4023C84.0617 34.373 85.9855 34.2461 88.1242 33.8164L88.3781 35.7891C85.9367 36.3066 83.7102 36.3945 80.3312 36.3945H78.8859V30.7305H84.4719V28.9922H78.8469ZM80.1945 41.8047C84.0129 41.3066 85.8977 39.4902 85.9172 37.5664V37.2148H88.3781V37.5664C88.3781 39.4902 90.2531 41.3066 94.1203 41.8047L93.2023 43.7188C90.3117 43.3281 88.2316 42.1758 87.1477 40.5449C86.0441 42.1758 83.9641 43.3281 81.093 43.7188L80.1945 41.8047ZM103.173 26.9219C106.923 26.9316 109.863 28.9629 109.873 32.0391C109.863 35.1445 106.923 37.166 103.173 37.1562C99.4137 37.166 96.4938 35.1445 96.4938 32.0391C96.4938 28.9629 99.4137 26.9316 103.173 26.9219ZM95.068 41.6289V39.6172H111.338V41.6289H95.068ZM98.9156 32.0391C98.9059 33.9727 100.703 35.125 103.173 35.125C105.625 35.125 107.402 33.9727 107.412 32.0391C107.402 30.1348 105.625 28.9336 103.173 28.9531C100.703 28.9336 98.9059 30.1348 98.9156 32.0391ZM128.223 39.7734V41.8242H111.953V39.7734H118.809V37.0977H113.828V31.1211H123.887V29.168H113.809V27.1758H126.348V33.0742H116.328V35.0664H126.758V37.0977H121.289V39.7734H128.223ZM38.2109 53.8008V55.7344H34.6953C34.7539 57.1309 36.0137 58.4102 38.6406 58.8984L37.6641 60.8125C35.6523 60.4219 34.2656 59.5332 33.4746 58.3418C32.6934 59.6504 31.2773 60.6465 29.1875 61.0664L28.1719 59.1328C30.8574 58.625 32.1074 57.2285 32.1758 55.7344H28.6406V53.8008H32.1953V52.0625H34.6953V53.8008H38.2109ZM27.5664 61.8281C30.8477 61.8281 35.2227 61.7988 38.9727 61.3203L39.1289 63.1172C37.6641 63.3711 36.1602 63.5371 34.6758 63.6445V69.25H32.1953V63.7812C30.6523 63.8398 29.1777 63.8398 27.8789 63.8398L27.5664 61.8281ZM40.0469 69.7969V52.043H42.5078V69.7969H40.0469ZM49.3734 52.7852C51.6391 52.7656 53.4457 54.0645 53.934 55.9688H56.9125V52.0234H59.393V61.5742H56.9125V57.9609H53.9438C53.4848 59.9141 51.6586 61.2422 49.3734 61.2422C46.6391 61.2422 44.6273 59.4648 44.6469 56.9844C44.6273 54.5527 46.6391 52.7656 49.3734 52.7852ZM47.0102 56.9844C47.0004 58.3125 47.977 59.1523 49.3734 59.1523C50.7211 59.1523 51.6879 58.3125 51.6977 56.9844C51.6879 55.6562 50.7211 54.8457 49.3734 54.8555C47.977 54.8457 47.0004 55.6562 47.0102 56.9844ZM47.5375 69.6016V62.3555H49.9984V64.0742H56.9125V62.3555H59.393V69.6016H47.5375ZM49.9984 67.5898H56.9125V65.9883H49.9984V67.5898ZM76.0438 52.7852V54.7383H71.1414C71.4246 56.2031 73.2703 57.6875 76.7859 58.0781L75.868 60.0312C72.5379 59.6602 70.3211 58.2832 69.3836 56.4375C68.4461 58.2734 66.2391 59.6602 62.9188 60.0312L62.0203 58.0781C65.5359 57.6875 67.3523 56.1934 67.6453 54.7383H62.782V52.7852H76.0438ZM61.2781 62.8633V60.8711H77.5477V62.8633H70.8484V65.9297H68.3875V62.8633H61.2781ZM63.1922 69.4844V64.3477H65.6727V67.4922H75.7508V69.4844H63.1922ZM93.0656 52.0234V69.8359H90.5461V52.0234H93.0656ZM79.0617 65.6758V53.4297H81.5617V57.7656H85.3898V53.4297H87.8508V65.6758H79.0617ZM81.5617 63.6641H85.3898V59.6992H81.5617V63.6641ZM106.191 56.0469C106.182 59.3086 107.666 62.5801 110.684 63.8594L109.219 65.8516C107.188 64.9336 105.781 63.1562 104.971 60.959C104.17 63.3613 102.715 65.2949 100.547 66.2812L99.043 64.2109C102.148 62.9023 103.662 59.4941 103.672 56.0469V53.3906H106.191V56.0469ZM111.641 69.8359V52.0234H114.16V69.8359H111.641ZM126.26 53.0586V55.0508H122.725C122.735 57.1309 123.985 59.2695 126.866 60.1875L125.596 62.1211C123.623 61.4766 122.266 60.207 121.495 58.625C120.704 60.3535 119.278 61.7402 117.217 62.4141L115.889 60.5C118.829 59.5527 120.176 57.2676 120.205 55.0508H116.573V53.0586H126.26ZM118.291 65.4805V63.5078H130.264V69.7969H127.764V65.4805H118.291ZM127.764 62.7461V52.0234H130.264V56.3398H132.666V58.4102H130.264V62.7461H127.764ZM147.071 52.0234V58.9766H149.688V61.0273H147.071V69.7969H144.61V52.0234H147.071ZM132.95 56.6719V54.6797H136.973V52.2969H139.473V54.6797H143.399V56.6719H132.95ZM133.673 61.9062C133.663 59.4258 135.596 57.6582 138.223 57.668C140.811 57.6582 142.755 59.4258 142.755 61.9062C142.755 64.3867 140.811 66.1348 138.223 66.1445C135.596 66.1348 133.663 64.3867 133.673 61.9062ZM136.055 61.9062C136.055 63.2832 136.964 64.1035 138.223 64.0938C139.464 64.1035 140.372 63.2832 140.372 61.9062C140.372 60.5391 139.464 59.6992 138.223 59.6797C136.964 59.6992 136.055 60.5391 136.055 61.9062ZM164.874 52.0234V69.7969H162.355V52.0234H164.874ZM149.991 64.7578C154.581 62.5898 156.603 59.7773 157.003 55.832H150.948V53.8789H159.542C159.532 59.2695 157.648 63.752 151.3 66.75L149.991 64.7578Z" fill="white"/>
<defs>
<linearGradient id="paint0_linear_499_1454" x1="166.562" y1="-28" x2="229.106" y2="173.723" gradientUnits="userSpaceOnUse">
<stop stop-color="#A98BFF"/>
<stop offset="1" stop-color="#FFA368"/>
</linearGradient>
</defs>
</svg>
