<svg width="393" height="96" viewBox="0 0 393 96" fill="none" xmlns="http://www.w3.org/2000/svg">
<g clip-path="url(#clip0_1761_4070)">
<rect width="393" height="96" fill="#64A5FF"/>
<circle cx="196.752" cy="47.7517" r="163.752" fill="#A0C8FF"/>
<circle cx="196.724" cy="47.7241" r="127.536" fill="#ECF4FF"/>
<path d="M100.999 47.6211V63.6172H98.8367V47.6211H100.999ZM87.6219 60.0488V49.4316H93.7391V51.2246H89.8191V58.1943C91.5242 58.1768 92.825 58.0801 94.3191 57.7812L94.4949 59.6094C92.6844 59.9697 91.076 60.0488 88.7293 60.0488H87.6219ZM92.6492 55.2852V53.457H95.5145V47.9023H97.6062V62.8965H95.5145V55.2852H92.6492ZM115.721 47.6211V63.6523H113.453V47.6211H115.721ZM102.801 54.4414C102.792 50.9521 104.576 48.7461 107.037 48.7461C109.445 48.7461 111.238 50.9521 111.238 54.4414C111.238 57.957 109.445 60.1543 107.037 60.1543C104.576 60.1543 102.792 57.957 102.801 54.4414ZM104.963 54.4414C104.954 56.8232 105.789 58.124 107.037 58.1152C108.25 58.124 109.068 56.8232 109.076 54.4414C109.068 52.0684 108.25 50.7676 107.037 50.7676C105.789 50.7676 104.954 52.0684 104.963 54.4414ZM131.392 47.6211V63.6172H129.23V55.5488H127.771V62.9141H125.679V47.9727H127.771V53.7383H129.23V47.6211H131.392ZM117.47 58.9414C119.562 57.7461 120.854 56.4102 121.619 54.8457L117.875 55.25L117.611 53.3516L122.234 53.1055C122.375 52.5254 122.471 51.9189 122.515 51.2773H118.437V49.4844H124.695C124.686 54.0371 123.57 57.7812 118.771 60.5234L117.47 58.9414ZM146.202 47.6387V58.5371H143.97V52.9473H141.386V51.1543H143.97V47.6387H146.202ZM133.317 50.293V48.4824H140.577V53.5098H135.567V55.1621C138.011 55.1357 139.742 55.0215 141.667 54.6348L141.895 56.4102C139.698 56.876 137.694 56.9551 134.653 56.9551H133.352V51.8574H138.38V50.293H133.317ZM134.53 61.8242C137.967 61.376 139.663 59.7412 139.681 58.0098V57.6934H141.895V58.0098C141.895 59.7412 143.583 61.376 147.063 61.8242L146.237 63.5469C143.636 63.1953 141.764 62.1582 140.788 60.6904C139.795 62.1582 137.923 63.1953 135.339 63.5469L134.53 61.8242ZM155.211 48.4297C158.586 48.4385 161.232 50.2666 161.24 53.0352C161.232 55.8301 158.586 57.6494 155.211 57.6406C151.827 57.6494 149.199 55.8301 149.199 53.0352C149.199 50.2666 151.827 48.4385 155.211 48.4297ZM147.916 61.666V59.8555H162.559V61.666H147.916ZM151.379 53.0352C151.37 54.7754 152.988 55.8125 155.211 55.8125C157.417 55.8125 159.017 54.7754 159.026 53.0352C159.017 51.3213 157.417 50.2402 155.211 50.2578C152.988 50.2402 151.37 51.3213 151.379 53.0352ZM177.755 59.9961V61.8418H163.113V59.9961H169.283V57.5879H164.8V52.209H173.853V50.4512H164.783V48.6582H176.068V53.9668H167.05V55.7598H176.437V57.5879H171.515V59.9961H177.755ZM191.713 49.2207V50.9609H188.549C188.602 52.2178 189.736 53.3691 192.1 53.8086L191.221 55.5312C189.41 55.1797 188.162 54.3799 187.451 53.3076C186.747 54.4854 185.473 55.3818 183.592 55.7598L182.678 54.0195C185.095 53.5625 186.22 52.3057 186.282 50.9609H183.1V49.2207H186.299V47.6562H188.549V49.2207H191.713ZM182.133 56.4453C185.086 56.4453 189.024 56.4189 192.399 55.9883L192.539 57.6055C191.221 57.834 189.868 57.9834 188.532 58.0801V63.125H186.299V58.2031C184.91 58.2559 183.583 58.2559 182.414 58.2559L182.133 56.4453ZM193.366 63.6172V47.6387H195.58V63.6172H193.366ZM201.759 48.3066C203.799 48.2891 205.424 49.458 205.864 51.1719H208.545V47.6211H210.777V56.2168H208.545V52.9648H205.873C205.46 54.7227 203.816 55.918 201.759 55.918C199.299 55.918 197.488 54.3184 197.506 52.0859C197.488 49.8975 199.299 48.2891 201.759 48.3066ZM199.632 52.0859C199.624 53.2812 200.503 54.0371 201.759 54.0371C202.972 54.0371 203.842 53.2812 203.851 52.0859C203.842 50.8906 202.972 50.1611 201.759 50.1699C200.503 50.1611 199.624 50.8906 199.632 52.0859ZM200.107 63.4414V56.9199H202.322V58.4668H208.545V56.9199H210.777V63.4414H200.107ZM202.322 61.6309H208.545V60.1895H202.322V61.6309ZM225.763 48.3066V50.0645H221.351C221.605 51.3828 223.267 52.7188 226.431 53.0703L225.605 54.8281C222.607 54.4941 220.612 53.2549 219.769 51.5938C218.925 53.2461 216.939 54.4941 213.95 54.8281L213.142 53.0703C216.306 52.7188 217.94 51.374 218.204 50.0645H213.827V48.3066H225.763ZM212.474 57.377V55.584H227.116V57.377H221.087V60.1367H218.872V57.377H212.474ZM214.196 63.3359V58.7129H216.429V61.543H225.499V63.3359H214.196ZM241.082 47.6211V63.6523H238.815V47.6211H241.082ZM228.479 59.9082V48.8867H230.729V52.7891H234.174V48.8867H236.389V59.9082H228.479ZM230.729 58.0977H234.174V54.5293H230.729V58.0977ZM252.896 51.2422C252.887 54.1777 254.223 57.1221 256.939 58.2734L255.62 60.0664C253.792 59.2402 252.526 57.6406 251.797 55.6631C251.076 57.8252 249.767 59.5654 247.816 60.4531L246.462 58.5898C249.257 57.4121 250.619 54.3447 250.628 51.2422V48.8516H252.896V51.2422ZM257.8 63.6523V47.6211H260.067V63.6523H257.8ZM270.958 48.5527V50.3457H267.776C267.785 52.2178 268.91 54.1426 271.502 54.9688L270.36 56.709C268.584 56.1289 267.363 54.9863 266.668 53.5625C265.957 55.1182 264.673 56.3662 262.819 56.9727L261.624 55.25C264.269 54.3975 265.482 52.3408 265.508 50.3457H262.239V48.5527H270.958ZM263.786 59.7324V57.957H274.561V63.6172H272.311V59.7324H263.786ZM272.311 57.2715V47.6211H274.561V51.5059H276.723V53.3691H274.561V57.2715H272.311ZM289.687 47.6211V53.8789H292.043V55.7246H289.687V63.6172H287.473V47.6211H289.687ZM276.978 51.8047V50.0117H280.599V47.8672H282.849V50.0117H286.383V51.8047H276.978ZM277.629 56.5156C277.62 54.2832 279.36 52.6924 281.724 52.7012C284.054 52.6924 285.803 54.2832 285.803 56.5156C285.803 58.748 284.054 60.3213 281.724 60.3301C279.36 60.3213 277.62 58.748 277.629 56.5156ZM279.773 56.5156C279.773 57.7549 280.591 58.4932 281.724 58.4844C282.841 58.4932 283.658 57.7549 283.658 56.5156C283.658 55.2852 282.841 54.5293 281.724 54.5117C280.591 54.5293 279.773 55.2852 279.773 56.5156ZM305.71 47.6211V63.6172H303.443V47.6211H305.71ZM292.316 59.082C296.446 57.1309 298.266 54.5996 298.626 51.0488H293.177V49.291H300.911C300.903 54.1426 299.206 58.1768 293.493 60.875L292.316 59.082Z" fill="#202124"/>
<path d="M116.135 31.5625V38.3359H111.319V31.5625H116.135ZM112.221 37.5859H115.233V32.3008H112.221V37.5859ZM118.374 40.9727V30.5312H119.3V40.9727H118.374ZM129.442 30.5312V40.9727H128.528V30.5312H129.442ZM121.427 32.2656V31.5039H126.278V35.207H122.388V37.668C124.116 37.6738 125.657 37.5918 127.52 37.293L127.614 38.0664C125.698 38.3652 124.116 38.4414 122.317 38.4414H121.45V34.457H125.353V32.2656H121.427ZM136.398 31.5625V38.3359H131.581V31.5625H136.398ZM132.484 37.5859H135.495V32.3008H132.484V37.5859ZM138.636 40.9727V30.5312H139.562V40.9727H138.636ZM149.705 30.5312V40.9727H148.79V30.5312H149.705ZM141.689 32.2656V31.5039H146.54V35.207H142.65V37.668C144.378 37.6738 145.919 37.5918 147.783 37.293L147.876 38.0664C145.96 38.3652 144.378 38.4414 142.58 38.4414H141.712V34.457H145.615V32.2656H141.689ZM159.35 31.832C159.344 33.1152 161.09 34.1582 162.935 34.4102L162.572 35.1367C160.891 34.8906 159.314 34.0527 158.752 32.834C158.184 34.0527 156.619 34.8906 154.932 35.1367L154.592 34.4102C156.426 34.1582 158.16 33.1152 158.154 31.832V31.8086H154.873V31.0586H162.654V31.8086H159.35V31.832ZM153.994 36.6602V35.8984H163.533V36.6602H159.291V38.793H158.377V36.6602H153.994ZM155.213 40.7266V37.75H156.139V39.9531H162.467V40.7266H155.213ZM172.727 30.5312V40.9727H171.801V30.5312H172.727ZM164.746 38.4531V31.4219H165.66V34.1758H168.766V31.4219H169.668V38.4531H164.746ZM165.66 37.6797H168.766V34.9141H165.66V37.6797ZM182.33 30.5312V34.832H184.077V35.5938H182.33V40.9492H181.416V30.5312H182.33ZM174.209 32.9688V32.207H176.893V30.6602H177.807V32.207H180.409V32.9688H174.209ZM174.807 36.2266C174.801 34.8203 175.879 33.8359 177.362 33.8359C178.832 33.8359 179.905 34.8203 179.916 36.2266C179.905 37.6387 178.832 38.6172 177.362 38.6172C175.879 38.6172 174.801 37.6387 174.807 36.2266ZM175.686 36.2266C175.68 37.1758 176.389 37.8438 177.362 37.832C178.323 37.8438 179.026 37.1758 179.037 36.2266C179.026 35.2832 178.323 34.6035 177.362 34.6094C176.389 34.6035 175.68 35.2832 175.686 36.2266ZM192.825 33.6953V34.4336H185.688V30.918H186.602V33.6953H192.825ZM184.387 36.6016V35.8516H193.926V36.6016H184.387ZM185.63 40.6914V37.668H186.544V39.9297H192.883V40.6914H185.63ZM200.829 33.7305C200.818 35.4004 202.025 37.2402 203.536 37.9609L203.009 38.6875C201.837 38.1133 200.847 36.8828 200.378 35.4707C199.898 37 198.855 38.3477 197.689 38.9453L197.126 38.2188C198.626 37.4863 199.915 35.5059 199.927 33.7305V32.3711H197.501V31.6094H203.173V32.3711H200.829V33.7305ZM204.45 40.9492V30.5312H205.364V34.75H207.11V35.5352H205.364V40.9492H204.45ZM216.972 38.8281V39.5898H207.433V38.8281H211.699V36.2734H212.601V38.8281H216.972ZM207.808 35.6289C209.63 35.3184 211.658 33.7949 211.663 32.043V31.2461H212.624V32.043C212.63 33.7832 214.687 35.3184 216.503 35.6289L216.093 36.3906C214.505 36.0625 212.829 34.9902 212.156 33.4902C211.47 34.9844 209.812 36.0625 208.218 36.3906L207.808 35.6289ZM221.232 33.332C221.226 35.2188 222.439 37.1172 223.951 37.8086L223.4 38.5586C222.216 37.9492 221.238 36.707 220.775 35.2246C220.312 36.7832 219.334 38.1191 218.15 38.7461L217.552 38.0078C219.082 37.2578 220.289 35.2539 220.295 33.332V31.4336H221.232V33.332ZM222.814 34.8438V34.0938H225.287V30.5312H226.201V40.9727H225.287V34.8438H222.814ZM230.836 31.2109C232.435 31.2227 233.607 32.207 233.613 33.6602C233.607 34.9668 232.658 35.8926 231.305 36.0684V37.8379C232.277 37.7969 233.256 37.7266 234.164 37.6094L234.223 38.3008C232.014 38.6758 229.553 38.6992 227.719 38.6875L227.566 37.9141C228.404 37.9082 229.371 37.9023 230.379 37.873V36.0684C228.996 35.9043 228.053 34.9727 228.058 33.6602C228.053 32.207 229.207 31.2227 230.836 31.2109ZM228.961 33.6602C228.949 34.6387 229.74 35.3184 230.836 35.3125C231.914 35.3184 232.699 34.6387 232.711 33.6602C232.699 32.6816 231.914 32.0137 230.836 32.0078C229.74 32.0137 228.949 32.6816 228.961 33.6602ZM234.832 40.9492V30.5312H235.746V34.832H237.445V35.6289H235.746V40.9492H234.832ZM245.871 31.4453V32.3711H248.309V30.543H249.235V38.1484H248.309V35.3711H245.871V36.3086H241.09V31.4453H245.871ZM242.004 35.5703H244.969V32.207H242.004V35.5703ZM242.496 40.7266V37.4688H243.422V39.9531H249.469V40.7266H242.496ZM245.871 34.6094H248.309V33.1445H245.871V34.6094ZM259.354 30.5312V36.1914H258.44V33.8359H256.331V33.0625H258.44V30.5312H259.354ZM250.776 35.6406C252.311 35.084 253.424 33.707 253.424 32.2305V31.9258H251.069V31.1641H256.682V31.9258H254.35V32.2305C254.35 33.5664 255.393 34.8789 256.917 35.4062L256.436 36.1211C255.264 35.6934 254.356 34.8203 253.905 33.7539C253.46 34.9492 252.493 35.916 251.256 36.3672L250.776 35.6406ZM252.651 40.8086V36.6953H253.577V37.9961H258.44V36.6953H259.354V40.8086H252.651ZM253.577 40.0586H258.44V38.7344H253.577V40.0586ZM272.269 30.543V38.1836H271.343V34.1875H269.198V33.4258H271.343V30.543H272.269ZM263.679 36.0977C265.214 35.5586 266.327 34.1816 266.327 32.6875V32.1484H263.972V31.3867H269.585V32.1484H267.253V32.6875C267.253 34.0352 268.296 35.3418 269.819 35.8633L269.339 36.6016C268.167 36.1738 267.259 35.3008 266.808 34.2227C266.356 35.4297 265.396 36.3848 264.159 36.8477L263.679 36.0977ZM265.577 40.7266V37.4922H266.503V39.9531H272.562V40.7266H265.577ZM283.478 32.207V32.9688H281.908V34.3867H283.478V35.1602H281.908V36.8711H280.993V30.543H281.908V32.207H283.478ZM274.208 31.9141V31.1641H278.931V34.0352H275.134V35.5469C276.986 35.541 278.327 35.4766 279.95 35.207L280.044 35.9688C278.374 36.2441 276.98 36.3145 275.04 36.3086H274.232V33.3086H278.029V31.9141H274.208ZM275.087 38.1719V37.4219H281.908V40.9492H280.993V38.1719H275.087Z" fill="#7241FF"/>
</g>
<defs>
<clipPath id="clip0_1761_4070">
<rect width="393" height="96" fill="white"/>
</clipPath>
</defs>
</svg>
