<svg width="184" height="160" viewBox="0 0 184 160" fill="none" xmlns="http://www.w3.org/2000/svg">
<g filter="url(#filter0_bdii_801_1549)">
<path fill-rule="evenodd" clip-rule="evenodd" d="M16 8C11.5817 8 8 11.5817 8 16V41.4119V126V144C8 148.418 11.5817 152 16 152H168C172.418 152 176 148.418 176 144V41.4119C176 36.9936 172.418 33.4119 168 33.4119H118.626L116.364 15.0232C115.871 11.0129 112.464 8 108.424 8H16Z" fill="#F1F3F4"/>
</g>
<path d="M131.193 86.0724C131.79 86.7724 132.054 87.6763 131.991 88.553H105.598L99.4087 62H109.457C110.318 62 111.135 62.3874 111.719 63.0738L131.187 86.0656L131.193 86.0724Z" fill="url(#paint0_linear_801_1549)"/>
<path d="M105.598 88.5527H131.99C131.94 89.3819 131.594 90.1906 130.979 90.7887L94.5443 126.007C94.0479 126.49 93.4446 126.761 92.8225 126.829L105.598 88.5527Z" fill="url(#paint1_linear_801_1549)"/>
<path d="M99.4079 62L105.598 88.553H79.3936L85.7592 62H99.4079Z" fill="url(#paint2_linear_801_1549)"/>
<path d="M105.598 88.5537L92.8227 126.83C92.565 126.858 92.3074 126.858 92.056 126.817L79.4001 88.5537H105.604H105.598Z" fill="url(#paint3_linear_801_1549)"/>
<path d="M79.3941 88.5527L92.05 126.816C91.4719 126.727 90.9126 126.456 90.4476 126.007L54.0258 90.7955C53.4037 90.1906 53.0644 89.3818 53.0078 88.5459H79.3941V88.5527Z" fill="url(#paint4_linear_801_1549)"/>
<path d="M85.7594 62L79.3938 88.553H53.0075C52.9509 87.6763 53.2148 86.7724 53.8118 86.0724L73.4303 63.067C74.0147 62.3874 74.8316 62 75.6862 62H85.7594Z" fill="url(#paint5_linear_801_1549)"/>
<defs>
<filter id="filter0_bdii_801_1549" x="-3.87333" y="-3.87333" width="191.747" height="167.747" filterUnits="userSpaceOnUse" color-interpolation-filters="sRGB">
<feFlood flood-opacity="0" result="BackgroundImageFix"/>
<feGaussianBlur in="BackgroundImageFix" stdDeviation="5.93667"/>
<feComposite in2="SourceAlpha" operator="in" result="effect1_backgroundBlur_801_1549"/>
<feColorMatrix in="SourceAlpha" type="matrix" values="0 0 0 0 0 0 0 0 0 0 0 0 0 0 0 0 0 0 127 0" result="hardAlpha"/>
<feOffset/>
<feGaussianBlur stdDeviation="4"/>
<feComposite in2="hardAlpha" operator="out"/>
<feColorMatrix type="matrix" values="0 0 0 0 0 0 0 0 0 0 0 0 0 0 0 0 0 0 0.1 0"/>
<feBlend mode="normal" in2="effect1_backgroundBlur_801_1549" result="effect2_dropShadow_801_1549"/>
<feBlend mode="normal" in="SourceGraphic" in2="effect2_dropShadow_801_1549" result="shape"/>
<feColorMatrix in="SourceAlpha" type="matrix" values="0 0 0 0 0 0 0 0 0 0 0 0 0 0 0 0 0 0 127 0" result="hardAlpha"/>
<feOffset dx="-1.82667" dy="1.82667"/>
<feGaussianBlur stdDeviation="0.913333"/>
<feComposite in2="hardAlpha" operator="arithmetic" k2="-1" k3="1"/>
<feColorMatrix type="matrix" values="0 0 0 0 1 0 0 0 0 1 0 0 0 0 1 0 0 0 0.532 0"/>
<feBlend mode="normal" in2="shape" result="effect3_innerShadow_801_1549"/>
<feColorMatrix in="SourceAlpha" type="matrix" values="0 0 0 0 0 0 0 0 0 0 0 0 0 0 0 0 0 0 127 0" result="hardAlpha"/>
<feOffset dx="1.82667" dy="-1.82667"/>
<feGaussianBlur stdDeviation="0.913333"/>
<feComposite in2="hardAlpha" operator="arithmetic" k2="-1" k3="1"/>
<feColorMatrix type="matrix" values="0 0 0 0 0.84 0 0 0 0 0.84 0 0 0 0 0.84 0 0 0 0.532 0"/>
<feBlend mode="normal" in2="effect3_innerShadow_801_1549" result="effect4_innerShadow_801_1549"/>
</filter>
<linearGradient id="paint0_linear_801_1549" x1="115.704" y1="62" x2="115.704" y2="88.553" gradientUnits="userSpaceOnUse">
<stop stop-color="#D4FAFF"/>
<stop offset="1" stop-color="#C1DAFF"/>
</linearGradient>
<linearGradient id="paint1_linear_801_1549" x1="112.406" y1="88.5527" x2="112.406" y2="126.829" gradientUnits="userSpaceOnUse">
<stop stop-color="#93C5FF"/>
<stop offset="1" stop-color="#3F7AED"/>
</linearGradient>
<linearGradient id="paint2_linear_801_1549" x1="92.4956" y1="62" x2="92.6044" y2="88.5054" gradientUnits="userSpaceOnUse">
<stop stop-color="#C9EBFF"/>
<stop offset="1" stop-color="#90B6FF"/>
</linearGradient>
<linearGradient id="paint3_linear_801_1549" x1="87.8758" y1="88.5059" x2="93.272" y2="126.741" gradientUnits="userSpaceOnUse">
<stop stop-color="#EBFFFF"/>
<stop offset="1" stop-color="#DCECFF"/>
</linearGradient>
<linearGradient id="paint4_linear_801_1549" x1="72.5289" y1="88.5459" x2="72.5289" y2="126.816" gradientUnits="userSpaceOnUse">
<stop stop-color="#BBDEFF"/>
<stop offset="1" stop-color="#85A7FD"/>
</linearGradient>
<linearGradient id="paint5_linear_801_1549" x1="53" y1="70.1555" x2="80.7815" y2="92.129" gradientUnits="userSpaceOnUse">
<stop stop-color="#DEFDFF"/>
<stop offset="1" stop-color="#F8FFFF"/>
</linearGradient>
</defs>
</svg>
