<svg width="226" height="235" viewBox="0 0 226 235" fill="none" xmlns="http://www.w3.org/2000/svg">
<path d="M61.7356 194.764V197.066H65.093V194.764H67.3254V202.867H59.5207V194.764H61.7356ZM61.3489 209.336V204.203H63.5989V207.543H72.4758V209.336H61.3489ZM61.7356 201.109H65.093V198.771H61.7356V201.109ZM69.8567 205.381V193.639H72.1067V205.381H69.8567ZM92.3398 205.926V207.754H77.6972V205.926H83.8671V202.973H79.2441V194.641H81.4941V197.119H88.4726V194.641H90.705V202.973H86.0996V205.926H92.3398ZM81.4941 201.18H88.4726V198.912H81.4941V201.18ZM98.888 196.117C98.8792 198.112 99.9954 200.046 102.527 200.846L101.331 202.621C99.6175 202.041 98.4398 200.89 97.763 199.439C97.0599 201.021 95.803 202.261 94.0013 202.902L92.7884 201.109C95.4691 200.257 96.6116 198.165 96.6204 195.977V194.447H98.888V196.117ZM95.39 205.645V203.869H106.376V209.617H104.144V205.645H95.39ZM101.138 198.438V196.592H104.144V193.621H106.376V203.148H104.144V198.438H101.138ZM120.782 193.621V197.559H122.944V199.439H120.782V203.271H118.532V193.621H120.782ZM108.091 196.838V195.062H111.729V193.533H113.962V195.062H117.583V196.838H108.091ZM108.864 200.195C108.864 198.508 110.481 197.33 112.837 197.33C115.166 197.33 116.774 198.508 116.774 200.195C116.774 201.927 115.166 203.087 112.837 203.096C110.481 203.087 108.864 201.927 108.864 200.195ZM110.323 209.441V203.975H120.782V209.441H110.323ZM111.061 200.195C111.052 201.013 111.764 201.435 112.837 201.443C113.918 201.435 114.647 201.013 114.647 200.195C114.647 199.431 113.918 199.009 112.837 199.018C111.764 199.009 111.052 199.431 111.061 200.195ZM112.538 207.648H118.567V205.732H112.538V207.648ZM136.682 193.621V209.652H134.414V193.621H136.682ZM123.762 200.441C123.753 196.952 125.537 194.746 127.998 194.746C130.406 194.746 132.199 196.952 132.199 200.441C132.199 203.957 130.406 206.154 127.998 206.154C125.537 206.154 123.753 203.957 123.762 200.441ZM125.924 200.441C125.915 202.823 126.75 204.124 127.998 204.115C129.211 204.124 130.028 202.823 130.037 200.441C130.028 198.068 129.211 196.768 127.998 196.768C126.75 196.768 125.915 198.068 125.924 200.441ZM152.353 193.621V209.617H150.208V193.621H152.353ZM138.624 200.547C138.624 196.97 139.987 194.755 142.105 194.764C144.03 194.755 145.348 196.557 145.594 199.545H146.904V193.85H149.013V208.879H146.904V201.32H145.612C145.418 204.458 144.074 206.365 142.105 206.365C139.987 206.365 138.624 204.142 138.624 200.547ZM140.699 200.547C140.681 203.008 141.208 204.221 142.105 204.203C143.028 204.221 143.573 203.008 143.564 200.547C143.573 198.095 143.028 196.873 142.105 196.873C141.208 196.873 140.681 198.095 140.699 200.547ZM168.323 205.908V207.754H153.68V205.908H156.95V201.988C155.711 201.241 154.964 200.107 154.964 198.701C154.964 196.108 157.495 194.403 160.975 194.395C164.438 194.403 166.996 196.108 167.005 198.701C166.996 200.081 166.275 201.197 165.071 201.944V205.908H168.323ZM157.178 198.701C157.178 200.266 158.681 201.232 160.975 201.232C163.234 201.232 164.781 200.266 164.79 198.701C164.781 197.093 163.234 196.161 160.975 196.17C158.681 196.161 157.178 197.093 157.178 198.701ZM159.165 205.908H162.803V202.797C162.232 202.911 161.617 202.973 160.975 202.973C160.334 202.973 159.727 202.911 159.165 202.806V205.908Z" fill="#202124"/>
<path d="M10.9263 219.953V232.107H9.88727V219.953H10.9263ZM0.658752 225.203C0.665588 222.619 1.69098 220.985 3.27008 220.979C4.74664 220.985 5.74469 222.407 5.88141 224.697H7.45367V220.213H8.47906V231.492H7.45367V225.586H5.88824C5.78571 227.951 4.76715 229.435 3.27008 229.428C1.69098 229.435 0.665588 227.787 0.658752 225.203ZM1.67047 225.203C1.6568 227.172 2.28571 228.416 3.27008 228.402C4.26129 228.416 4.8902 227.172 4.88336 225.203C4.8902 223.228 4.26129 221.99 3.27008 221.99C2.28571 221.99 1.6568 223.228 1.67047 225.203ZM22.3768 219.953V232.107H21.2967V219.953H22.3768ZM12.3143 228.184C12.8407 228.184 13.408 228.177 13.9959 228.17V222.168H12.6288V221.279H19.5741V222.168H18.1932V228.013C18.8768 227.965 19.5536 227.903 20.203 227.828L20.2713 228.635C17.619 229.045 14.6864 229.086 12.4373 229.1L12.3143 228.184ZM15.0487 228.149C15.7323 228.136 16.4364 228.108 17.1405 228.074V222.168H15.0487V228.149ZM35.2765 229.633V230.521H24.1476V229.633H29.1241V226.652H30.1769V229.633H35.2765ZM24.5851 225.9C26.7111 225.538 29.0763 223.761 29.0831 221.717V220.787H30.2042V221.717C30.2111 223.747 32.6105 225.538 34.7296 225.9L34.2511 226.789C32.3986 226.406 30.4435 225.155 29.6573 223.405C28.8575 225.148 26.923 226.406 25.0636 226.789L24.5851 225.9ZM45.7836 225.805V226.693H37.3891V221.088H45.6605V221.977H38.4555V225.805H45.7836ZM35.9672 230.453V229.551H47.0961V230.453H35.9672ZM58.902 225.6V226.447H47.7731V225.6H58.902ZM49.113 228.225V227.418H57.5075V230.002H50.2067V231.164H57.904V231.943H49.1266V229.264H56.4411V228.225H49.113ZM49.1813 221.102V220.322H57.4665V222.838H50.2888V223.904H57.6852V224.684H49.2223V222.1H56.3864V221.102H49.1813ZM72.2463 219.953V224.766H74.2834V225.668H72.2463V232.135H71.1799V219.953H72.2463ZM63.3733 229.086V221.143H69.0471V222.031H64.4397V228.184C66.6409 228.177 68.1926 228.081 70.0041 227.746L70.1409 228.676C68.2336 229.018 66.6409 229.086 64.3303 229.086H63.3733ZM85.7476 225.641V226.529H74.6597V225.641H85.7476ZM76.0132 231.902V227.883H84.3941V231.902H76.0132ZM76.0679 224.41V220.35H84.3667V221.238H77.1343V223.521H84.4761V224.41H76.0679ZM77.0796 231.041H83.3413V228.744H77.0796V231.041ZM89.7469 220.896C91.4012 220.903 92.5975 222.325 92.7615 224.602H95.4891V219.953H96.5555V232.135H95.4891V225.49H92.7752C92.659 227.876 91.4422 229.366 89.7469 229.359C87.949 229.366 86.6912 227.726 86.6981 225.135C86.6912 222.551 87.949 220.903 89.7469 220.896ZM87.7234 225.135C87.7303 227.11 88.5506 228.409 89.7469 228.402C90.9363 228.409 91.7703 227.11 91.7703 225.135C91.7703 223.159 90.9363 221.86 89.7469 221.854C88.5506 221.86 87.7303 223.159 87.7234 225.135ZM112.661 229.66V230.549H101.533V229.66H106.536V227.035H102.845V220.814H103.925V223.016H110.242V220.814H111.294V227.035H107.589V229.66H112.661ZM103.925 226.16H110.242V223.891H103.925V226.16ZM117.495 221.908C117.488 223.583 118.739 225.128 120.503 225.736L119.915 226.598C118.568 226.099 117.508 225.066 116.989 223.768C116.476 225.203 115.382 226.324 113.954 226.885L113.366 225.996C115.212 225.347 116.428 223.74 116.442 221.867V220.582H117.495V221.908ZM115.253 228.676V227.814H123.428V232.107H122.348V228.676H115.253ZM119.641 223.412V222.51H122.348V219.953H123.428V227.145H122.348V223.412H119.641ZM130.709 220.746C133.245 220.753 135.152 222.079 135.152 224.082C135.152 226.105 133.245 227.432 130.709 227.418C128.173 227.432 126.266 226.105 126.266 224.082C126.266 222.079 128.173 220.753 130.709 220.746ZM125.172 230.494V229.592H136.301V230.494H125.172ZM127.291 224.082C127.277 225.559 128.747 226.543 130.709 226.543C132.657 226.543 134.113 225.559 134.113 224.082C134.113 222.626 132.657 221.614 130.709 221.621C128.747 221.614 127.277 222.626 127.291 224.082ZM148.12 229.701V230.604H136.991V229.701H141.995V227.404H138.386V223.658H145.659V221.744H138.359V220.855H146.712V224.533H139.452V226.516H146.999V227.404H143.048V229.701H148.12ZM158.183 221.061V226.652H152.564V221.061H158.183ZM153.617 225.791H157.144V221.936H153.617V225.791ZM153.945 231.848V228.02H154.998V230.945H162.107V231.848H153.945ZM160.48 228.867V219.953H161.547V223.658H163.379V224.561H161.547V228.867H160.48ZM174.952 225.066V225.928H163.864V225.066H174.952ZM165.204 227.855V227.021H173.517V229.838H166.298V231.096H173.886V231.971H165.231V229.031H172.464V227.855H165.204ZM165.341 224.068V220.377H173.503V221.238H166.421V223.193H173.626V224.068H165.341ZM178.951 220.896C180.606 220.903 181.802 222.325 181.966 224.602H184.694V219.953H185.76V232.135H184.694V225.49H181.98C181.864 227.876 180.647 229.366 178.951 229.359C177.154 229.366 175.896 227.726 175.903 225.135C175.896 222.551 177.154 220.903 178.951 220.896ZM176.928 225.135C176.935 227.11 177.755 228.409 178.951 228.402C180.141 228.409 180.975 227.11 180.975 225.135C180.975 223.159 180.141 221.86 178.951 221.854C177.755 221.86 176.935 223.159 176.928 225.135ZM201.866 229.66V230.549H190.737V229.66H195.741V227.035H192.05V220.814H193.13V223.016H199.446V220.814H200.499V227.035H196.794V229.66H201.866ZM193.13 226.16H199.446V223.891H193.13V226.16ZM206.166 223.412C206.166 225.347 207.11 227.432 208.723 228.389L208.108 229.223C206.932 228.512 206.091 227.213 205.667 225.729C205.223 227.35 204.32 228.744 203.104 229.482L202.42 228.676C204.102 227.691 205.127 225.538 205.127 223.453V221.102H206.166V223.412ZM207.383 225.23V224.314H209.447V220.213H210.459V231.492H209.447V225.23H207.383ZM211.936 232.107V219.953H212.975V232.107H211.936ZM225.505 229.646V230.549H214.376V229.646H217.138V226.372C216.099 225.832 215.47 224.957 215.47 223.85C215.47 221.97 217.316 220.732 219.914 220.719C222.511 220.732 224.357 221.97 224.357 223.85C224.357 224.937 223.748 225.798 222.744 226.338V229.646H225.505ZM216.509 223.85C216.502 225.21 217.917 226.119 219.914 226.119C221.889 226.119 223.318 225.21 223.318 223.85C223.318 222.489 221.889 221.594 219.914 221.607C217.917 221.594 216.502 222.489 216.509 223.85ZM218.191 229.646H221.664V226.755C221.137 226.892 220.549 226.967 219.914 226.967C219.291 226.967 218.71 226.898 218.191 226.762V229.646Z" fill="#7F868C"/>
<mask id="mask0_1846_4125" style="mask-type:alpha" maskUnits="userSpaceOnUse" x="58" y="62" width="113" height="32">
<path d="M58.4478 77.6718L113.339 62.3022C114.045 62.1046 114.791 62.1046 115.496 62.3022L170.388 77.6718L114.667 93.0947L58.4478 77.6718Z" fill="#6234E8"/>
</mask>
<g mask="url(#mask0_1846_4125)">
<rect x="104.219" y="54.04" width="70.1493" height="48.7562" fill="#8162FF"/>
<path d="M114.418 62.0002L58.4478 77.672L114.667 93.0947L114.418 62.0002Z" fill="#6234E8"/>
</g>
<path fill-rule="evenodd" clip-rule="evenodd" d="M114.667 162V162L114.667 162L168.051 138.487C169.503 137.847 170.44 136.409 170.439 134.822L170.388 77.6719L114.667 93.0943V93.095L58.9527 77.9207L58.9458 134.735C58.9456 136.319 59.8792 137.753 61.327 138.394L114.667 162Z" fill="url(#paint0_linear_1846_4125)"/>
<path d="M49.734 88.997L58.4478 77.6719L114.667 93.0948L104.879 107.993C104.386 108.744 103.452 109.074 102.596 108.798L50.7071 92.1206C49.3889 91.697 48.8896 90.0943 49.734 88.997Z" fill="#A98BFF"/>
<path d="M179.868 88.6847L170.388 77.6719L114.667 93.0948L124.53 107.997C125.026 108.746 125.96 109.072 126.814 108.795L178.969 91.8921C180.329 91.4514 180.801 89.768 179.868 88.6847Z" fill="#A98BFF"/>
<path d="M104 79C100.538 59.9899 83.8901 24.8213 45 36.2273" stroke="#FF85E0" stroke-width="2" stroke-linecap="round" stroke-dasharray="6 6"/>
<path d="M131 81C133.993 67.9042 148.383 43.6769 182 51.5344" stroke="#8BBBFD" stroke-width="2" stroke-linecap="round"/>
<circle cx="87" cy="12" r="12" fill="#A0C8FF"/>
<path d="M138.719 21.1764L143.118 35.8357L129.173 42.1421L124.773 27.4828L138.719 21.1764Z" fill="#FFB2EB"/>
<defs>
<linearGradient id="paint0_linear_1846_4125" x1="72.4014" y1="106.199" x2="160.604" y2="161.88" gradientUnits="userSpaceOnUse">
<stop stop-color="#A5CBFF"/>
<stop offset="1" stop-color="#FFB8ED"/>
</linearGradient>
</defs>
</svg>
