<svg width="85" height="68" viewBox="0 0 85 68" fill="none" xmlns="http://www.w3.org/2000/svg">
<path d="M83.7228 25.2378C84.362 25.9717 84.6446 26.9193 84.5773 27.8385H56.3183L49.6909 0L60.4495 0C61.3713 0 62.246 0.406141 62.8717 1.1258L83.7161 25.2306L83.7228 25.2378Z" fill="url(#paint0_linear_1698_5771)"/>
<path d="M56.3174 27.8398H84.5764C84.5225 28.7091 84.1525 29.557 83.4931 30.1841L44.4822 67.1073C43.9507 67.6132 43.3048 67.8982 42.6387 67.9695L56.3174 27.8398Z" fill="url(#paint1_linear_1698_5771)"/>
<path d="M49.6895 0L56.3169 27.8385H28.2598L35.0756 0L49.6895 0Z" fill="url(#paint2_linear_1698_5771)"/>
<path d="M56.3175 27.8398L42.6388 67.9695C42.3629 67.998 42.0871 67.998 41.8179 67.9552L28.2671 27.8398H56.3242H56.3175Z" fill="url(#paint3_linear_1698_5771)"/>
<path d="M28.2606 27.8382L41.8114 67.9536C41.1924 67.8609 40.5936 67.5759 40.0957 67.1056L1.09829 30.1895C0.432186 29.5554 0.0688558 28.7075 0.00830078 27.8311H28.2606V27.8382Z" fill="url(#paint4_linear_1698_5771)"/>
<path d="M35.0761 0L28.2603 27.8385H0.00800541C-0.0525496 26.9193 0.23004 25.9717 0.869232 25.2378L21.8751 1.11867C22.5008 0.406141 23.3755 0 24.2906 0L35.0761 0Z" fill="url(#paint5_linear_1698_5771)"/>
<defs>
<linearGradient id="paint0_linear_1698_5771" x1="59.4907" y1="6.18084" x2="72.625" y2="40.5618" gradientUnits="userSpaceOnUse">
<stop stop-color="#A2DBFF"/>
<stop offset="1" stop-color="#A2DBFF" stop-opacity="0"/>
</linearGradient>
<linearGradient id="paint1_linear_1698_5771" x1="50.6054" y1="34.7676" x2="70.3068" y2="69.1486" gradientUnits="userSpaceOnUse">
<stop stop-color="#4DC4FF"/>
<stop offset="1" stop-color="white"/>
</linearGradient>
<linearGradient id="paint2_linear_1698_5771" x1="37.8577" y1="1.93151" x2="42.2883" y2="27.8385" gradientUnits="userSpaceOnUse">
<stop stop-color="#E1F2FF"/>
<stop offset="1" stop-color="#E1F2FF" stop-opacity="0"/>
</linearGradient>
<linearGradient id="paint3_linear_1698_5771" x1="54.0822" y1="28.5868" x2="42.2957" y2="67.9893" gradientUnits="userSpaceOnUse">
<stop stop-color="#A2DBFF"/>
<stop offset="1" stop-color="#A2DBFF" stop-opacity="0"/>
</linearGradient>
<linearGradient id="paint4_linear_1698_5771" x1="11.2028" y1="43.6521" x2="58.3317" y2="62.9672" gradientUnits="userSpaceOnUse">
<stop stop-color="#77D0FF"/>
<stop offset="1" stop-color="#77D0FF" stop-opacity="0"/>
</linearGradient>
<linearGradient id="paint5_linear_1698_5771" x1="9.65757" y1="13.9069" x2="27.8138" y2="42.107" gradientUnits="userSpaceOnUse">
<stop stop-color="#C4E7FF"/>
<stop offset="1" stop-color="white"/>
</linearGradient>
</defs>
</svg>
