<svg width="302" height="44" viewBox="0 0 302 44" fill="none" xmlns="http://www.w3.org/2000/svg">
<rect width="302" height="44" rx="6" fill="white"/>
<path d="M26.0127 17.0769C26.9725 17.0769 28.1756 16.4056 28.892 15.5105C29.5409 14.6993 30.014 13.5664 30.014 12.4336C30.014 12.2797 30.0005 12.1259 29.9734 12C28.9055 12.042 27.6214 12.7413 26.8508 13.6783C26.2425 14.3916 25.6883 15.5105 25.6883 16.6573C25.6883 16.8252 25.7153 16.993 25.7289 17.049C25.7964 17.0629 25.9046 17.0769 26.0127 17.0769ZM22.6333 34C23.9445 34 24.5258 33.0909 26.1614 33.0909C27.8241 33.0909 28.1891 33.972 29.649 33.972C31.0819 33.972 32.0417 32.6014 32.9474 31.2587C33.9612 29.7203 34.3803 28.2098 34.4073 28.1399C34.3127 28.1119 31.5686 26.951 31.5686 23.6923C31.5686 20.8671 33.7314 19.5944 33.8531 19.4965C32.4202 17.3706 30.2438 17.3147 29.649 17.3147C28.0404 17.3147 26.7292 18.3217 25.9046 18.3217C25.0124 18.3217 23.8364 17.3706 22.444 17.3706C19.7945 17.3706 17.1045 19.6364 17.1045 23.9161C17.1045 26.5734 18.1048 29.3846 19.3349 31.2028C20.3893 32.7413 21.3085 34 22.6333 34Z" fill="black"/>
<path d="M119.752 17.1748C121.481 17.1602 122.609 18.9473 122.609 21.7891C122.609 24.6309 121.481 26.4326 119.752 26.418C118.039 26.4326 116.925 24.6309 116.925 21.7891C116.925 18.9473 118.039 17.1602 119.752 17.1748ZM119.752 18.4785C118.8 18.4785 118.214 19.6943 118.214 21.7891C118.214 23.8838 118.8 25.0996 119.752 25.0996C120.719 25.0996 121.32 23.8838 121.32 21.7891C121.32 19.6943 120.719 18.4785 119.752 18.4785ZM128.073 16.1201V29.2451H126.74V22.4043H125.114V28.6006H123.795V16.3691H125.114V21.2617H126.74V16.1201H128.073ZM140.583 16.5156V17.5703H138.678V19.8408H140.524V20.9102H130.9V19.8408H132.76V17.5703H130.841V16.5156H140.583ZM141.71 21.877V22.9756H129.743V21.877H141.71ZM140.202 24.001V27.0039H132.555V28.0586H140.568V29.1133H131.193V26.0225H138.825V25.041H131.178V24.001H140.202ZM134.137 19.8408H137.287V17.5703H134.137V19.8408ZM154.718 26.5059V27.6777H142.707V26.5059H147.995V24.2061H144.171V20.0312H151.876V18.1855H144.142V17.043H153.253V21.1445H145.548V23.0635H153.561V24.2061H149.372V26.5059H154.718ZM164.152 19.46C164.137 21.8623 165.587 24.2646 167.624 25.1729L166.789 26.2715C165.28 25.5537 164.086 24.0815 163.478 22.2871C162.863 24.2061 161.654 25.7954 160.08 26.5645L159.23 25.3926C161.295 24.4697 162.746 21.9648 162.746 19.46V17.2188H164.152V19.46ZM170.202 16.1201V29.2744H168.81V16.1201H170.202ZM176.881 18.4785C176.881 20.1484 178.039 21.7451 180.045 22.4189L179.342 23.5029C177.855 22.9902 176.764 21.9648 176.193 20.6758C175.622 22.0967 174.486 23.21 172.941 23.752L172.194 22.668C174.245 21.9648 175.475 20.2803 175.49 18.4639V18.1123H172.604V16.9844H179.708V18.1123H176.881V18.4785ZM182.609 16.1201V19.4893H184.513V20.6611H182.609V24.0303H181.217V16.1201H182.609ZM182.609 24.6748V29.2451H181.217V25.8027H173.937V24.6748H182.609ZM195.485 16.1201V21.4375H197.594V22.5947H195.485V29.2451H194.108V16.1201H195.485ZM192.965 18.1709V19.3135H185.187V18.1709H188.424V16.2959H189.816V18.1709H192.965ZM189.127 20.2803C191.002 20.2803 192.379 21.54 192.394 23.3271C192.379 25.1289 191.002 26.374 189.127 26.3887C187.238 26.374 185.861 25.1289 185.861 23.3271C185.861 21.54 187.238 20.2803 189.127 20.2803ZM189.127 21.4229C188.014 21.4229 187.179 22.1992 187.194 23.3271C187.179 24.4697 188.014 25.2314 189.127 25.2168C190.241 25.2314 191.061 24.4697 191.061 23.3271C191.061 22.1992 190.241 21.4229 189.127 21.4229ZM209.137 16.1201V29.2451H207.731V16.1201H209.137ZM205.226 17.5264C205.226 21.3643 203.585 24.7041 199.088 26.8574L198.356 25.7295C201.85 24.0669 203.549 21.7012 203.82 18.6396H198.986V17.5264H205.226Z" fill="black"/>
</svg>
