<svg width="25" height="19" viewBox="0 0 25 19" fill="none" xmlns="http://www.w3.org/2000/svg">
<path fill-rule="evenodd" clip-rule="evenodd" d="M5.75729 0.445197C6.02433 0.159232 6.37722 0 6.74392 0H18.0231C18.421 0 18.8012 0.187397 19.0733 0.517692L23.7478 6.19092C24.3057 6.86803 24.2582 7.93677 23.643 8.54635L13.5009 18.5972C12.9776 19.1158 12.2036 19.1358 11.6602 18.6447L0.544338 8.60098C-0.142911 7.98001 -0.186106 6.80987 0.452952 6.12552L5.75729 0.445197ZM18.0231 1.63796H6.74392L1.43958 7.31828L12.5554 17.362L22.6976 7.31119L18.0231 1.63796Z" fill="#7241FF"/>
<path fill-rule="evenodd" clip-rule="evenodd" d="M23.3735 8.19069H0.340332V6.55273H23.3735V8.19069Z" fill="#7241FF"/>
<path fill-rule="evenodd" clip-rule="evenodd" d="M6.21906 6.13167L9.25037 0L10.5051 0.803028L7.47375 6.93469L13.01 17.1709L11.784 18.0293L6.24773 7.79314C5.97363 7.28636 5.96266 6.6503 6.21906 6.13167Z" fill="#7241FF"/>
<path fill-rule="evenodd" clip-rule="evenodd" d="M18.4206 6.13167L15.3893 0L14.1346 0.803028L17.1659 6.93469L11.6297 17.1709L12.8557 18.0293L18.3919 7.79314C18.666 7.28636 18.677 6.6503 18.4206 6.13167Z" fill="#7241FF"/>
</svg>
