<svg width="275" height="275" viewBox="0 0 275 275" fill="none" xmlns="http://www.w3.org/2000/svg">
<mask id="mask0_1840_4115" style="mask-type:alpha" maskUnits="userSpaceOnUse" x="0" y="0" width="275" height="275">
<circle cx="137.5" cy="137.5" r="137.5" fill="#F5F1FF"/>
</mask>
<g mask="url(#mask0_1840_4115)">
<circle cx="137.5" cy="134.5" r="150.5" fill="#F5F1FF"/>
<path fill-rule="evenodd" clip-rule="evenodd" d="M190.216 236.299C207.664 221.221 218.705 198.931 218.705 174.061C218.705 128.651 181.893 91.8381 136.483 91.8381C91.0721 91.8381 54.2598 128.651 54.2598 174.061C54.2598 199.17 65.5146 221.65 83.2547 236.732L71.1752 257.654C67.9822 263.185 69.8771 270.256 75.4074 273.449C80.9377 276.642 88.0092 274.747 91.2021 269.217L102.818 249.098C113.093 253.715 124.488 256.284 136.483 256.284C148.711 256.284 160.316 253.614 170.746 248.826L182.518 269.217C185.711 274.747 192.783 276.642 198.313 273.449C203.843 270.256 205.738 263.185 202.545 257.654L190.216 236.299Z" fill="url(#paint0_linear_1840_4115)"/>
<circle cx="136.523" cy="173.107" r="60.5399" fill="#F5F1FF"/>
<path d="M91.3638 90.788C88.2399 87.6641 84.5314 85.1861 80.4498 83.4955C76.3683 81.8049 71.9937 80.9347 67.5759 80.9347C63.158 80.9347 58.7835 81.8049 54.7019 83.4955C50.6204 85.1861 46.9118 87.6641 43.7879 90.788C40.6641 93.9119 38.1861 97.6204 36.4954 101.702C34.8048 105.784 33.9347 110.158 33.9347 114.576C33.9347 118.994 34.8048 123.368 36.4954 127.45C38.1861 131.531 40.6641 135.24 43.7879 138.364L67.5759 114.576L91.3638 90.788Z" fill="#8BBBFD"/>
<path d="M181.682 90.788C184.806 87.6641 188.515 85.1861 192.596 83.4955C196.678 81.8049 201.052 80.9347 205.47 80.9347C209.888 80.9347 214.262 81.8049 218.344 83.4955C222.426 85.1861 226.134 87.6641 229.258 90.788C232.382 93.9119 234.86 97.6204 236.55 101.702C238.241 105.784 239.111 110.158 239.111 114.576C239.111 118.994 238.241 123.368 236.55 127.45C234.86 131.531 232.382 135.24 229.258 138.364L205.47 114.576L181.682 90.788Z" fill="#8BBBFD"/>
<rect x="131.966" y="126.889" width="9.11353" height="52.0773" rx="4.55677" fill="#CBB9FF"/>
<rect x="179.622" y="196.885" width="9.11353" height="48.8774" rx="4.55677" transform="rotate(121.764 179.622 196.885)" fill="#CBB9FF"/>
<circle cx="137.174" cy="173.758" r="13.0193" fill="#8162FF"/>
</g>
<defs>
<linearGradient id="paint0_linear_1840_4115" x1="136.483" y1="91.8381" x2="136.483" y2="275" gradientUnits="userSpaceOnUse">
<stop stop-color="#8BBBFD"/>
<stop offset="1" stop-color="#FFBDF2"/>
</linearGradient>
</defs>
</svg>
