<svg width="20" height="20" viewBox="0 0 20 20" fill="none" xmlns="http://www.w3.org/2000/svg">
<g clip-path="url(#clip0_1362_3642)">
<path d="M2.74424 2.74375C2.90052 2.58747 3.11248 2.49967 3.3335 2.49967H10.8335C11.0545 2.49967 11.2665 2.58747 11.4228 2.74375C11.579 2.90003 11.6668 3.11199 11.6668 3.33301V4.16634C11.6668 4.62658 12.0399 4.99967 12.5002 4.99967C12.9604 4.99967 13.3335 4.62658 13.3335 4.16634V3.33301C13.3335 2.66997 13.0701 2.03408 12.6013 1.56524C12.1324 1.0964 11.4965 0.833008 10.8335 0.833008H3.3335C2.67045 0.833008 2.03457 1.0964 1.56573 1.56524C1.09689 2.03408 0.833496 2.66997 0.833496 3.33301V10.833C0.833496 11.496 1.09689 12.1319 1.56573 12.6008C2.03457 13.0696 2.67045 13.333 3.3335 13.333H4.16683C4.62707 13.333 5.00016 12.9599 5.00016 12.4997C5.00016 12.0394 4.62707 11.6663 4.16683 11.6663H3.3335C3.11248 11.6663 2.90052 11.5785 2.74424 11.4223C2.58796 11.266 2.50016 11.054 2.50016 10.833V3.33301C2.50016 3.11199 2.58796 2.90003 2.74424 2.74375Z" fill="#3B4043"/>
<path fill-rule="evenodd" clip-rule="evenodd" d="M9.16683 6.66634C7.78612 6.66634 6.66683 7.78563 6.66683 9.16634V16.6663C6.66683 18.0471 7.78612 19.1663 9.16683 19.1663H16.6668C18.0475 19.1663 19.1668 18.0471 19.1668 16.6663V9.16634C19.1668 7.78563 18.0475 6.66634 16.6668 6.66634H9.16683ZM8.3335 9.16634C8.3335 8.7061 8.70659 8.33301 9.16683 8.33301H16.6668C17.1271 8.33301 17.5002 8.7061 17.5002 9.16634V16.6663C17.5002 17.1266 17.1271 17.4997 16.6668 17.4997H9.16683C8.70659 17.4997 8.3335 17.1266 8.3335 16.6663V9.16634Z" fill="#3B4043"/>
</g>
<defs>
<clipPath id="clip0_1362_3642">
<rect width="20" height="20" fill="white"/>
</clipPath>
</defs>
</svg>
