<svg width="239" height="236" viewBox="0 0 239 236" fill="none" xmlns="http://www.w3.org/2000/svg">
<path fill-rule="evenodd" clip-rule="evenodd" d="M87.8642 11.6435C83.608 10.4577 79.1964 12.9466 78.0105 17.2028L49.947 117.925C49.9401 117.95 49.9333 117.975 49.9266 118L36.2304 167.157C35.0445 171.413 37.5335 175.825 41.7897 177.011L238.45 231.805C242.706 232.99 247.118 230.502 248.304 226.245L282.698 102.801C283.884 98.5445 281.395 94.1328 277.139 92.947L183.357 66.8173L181.043 42.9202C180.724 39.6286 178.413 36.8724 175.227 35.9848L87.8642 11.6435Z" fill="#A0C8FF"/>
<path d="M33.6637 56.233C33.539 50.8639 38.6352 46.8993 43.8087 48.3408L231.46 100.625C234.612 101.503 236.912 104.212 237.266 107.464L249.926 223.614C250.539 229.24 245.277 233.706 239.826 232.188L42.1475 177.11C38.7542 176.165 36.3786 173.111 36.2968 169.589L33.6637 56.233Z" fill="url(#paint0_linear_470_999)" fill-opacity="0.8"/>
<defs>
<linearGradient id="paint0_linear_470_999" x1="96.1019" y1="10.8119" x2="173.673" y2="239.129" gradientUnits="userSpaceOnUse">
<stop stop-color="#FF8DE2"/>
<stop offset="1" stop-color="#95C0FF"/>
</linearGradient>
</defs>
</svg>
